 <svg width="50" height="50" viewBox="0 0 50 50" fill="none" xmlns="http://www.w3.org/2000/svg">
                    <path
                        d="M50 25C50 38.7917 38.7917 50 25 50C11.2083 50 0 38.7917 0 25C0 11.2083 11.2083 0 25 0C26.5208 0 28.0625 0.145833 29.5417 0.416667C30.6667 0.625 31.4167 1.70833 31.2083 2.83333C31 3.95833 29.9167 4.70833 28.7917 4.5C27.5625 4.27083 26.2708 4.16667 25 4.16667C13.5208 4.16667 4.16667 13.5208 4.16667 25C4.16667 36.4792 13.5208 45.8333 25 45.8333C36.4792 45.8333 45.8333 36.4792 45.8333 25C45.8333 23.7292 45.7083 22.4583 45.5 21.2083C45.2917 20.0833 46.0417 19 47.1667 18.7917C48.3125 18.5833 49.375 19.3333 49.5833 20.4583C49.8542 21.9375 50 23.4792 50 25ZM26.7917 12.625C27.9375 12.7917 28.9792 12 29.1458 10.8542C29.3125 9.70833 28.5208 8.66667 27.375 8.5C26.5833 8.39583 25.7917 8.33333 25 8.33333C15.8125 8.33333 8.33333 15.8125 8.33333 25C8.33333 34.1875 15.8125 41.6667 25 41.6667C34.1875 41.6667 41.6667 34.1875 41.6667 25C41.6667 24.2083 41.6042 23.4167 41.5 22.625C41.3333 21.4792 40.2917 20.6875 39.1458 20.8542C38 21.0208 37.2083 22.0625 37.375 23.2083C37.4583 23.7917 37.5 24.3958 37.5 25C37.5 31.8958 31.8958 37.5 25 37.5C18.1042 37.5 12.5 31.8958 12.5 25C12.5 18.1042 18.1042 12.5 25 12.5C25.6042 12.5 26.2083 12.5417 26.7917 12.625ZM22.3958 18.9583C21.625 18.1042 20.3125 18.0208 19.4583 18.7917C17.6875 20.375 16.6875 22.6458 16.6875 25C16.6875 29.6042 20.4167 33.3333 25.0208 33.3333C27.3958 33.3333 29.6458 32.3125 31.2292 30.5625C32 29.7083 31.9167 28.3958 31.0625 27.625C30.2083 26.8542 28.8958 26.9375 28.125 27.7917C27.3333 28.6667 26.2083 29.1875 25.0208 29.1875C22.7292 29.1875 20.8542 27.3125 20.8542 25.0208C20.8542 23.8333 21.3542 22.7083 22.25 21.9167C23.1042 21.1458 23.1875 19.8333 22.4167 18.9792L22.3958 18.9583ZM25.625 21.4583C24.8125 22.2708 24.8125 23.5833 25.625 24.3958C26.0417 24.8125 26.5625 25 27.1042 25C27.6458 25 28.1667 24.7917 28.5833 24.3958L38.3958 14.5833H43.7917C44.3542 14.5833 44.875 14.3542 45.2708 13.9792L49.4375 9.8125C50.0417 9.20833 50.2083 8.3125 49.8958 7.54167C49.5833 6.77083 48.8125 6.25 47.9792 6.25H43.8125V2.08333C43.8125 1.25 43.3125 0.479167 42.5208 0.166667C41.7292 -0.166667 40.8542 0.0208334 40.25 0.625L36.0833 4.79167C35.6875 5.1875 35.4792 5.70833 35.4792 6.27083V11.6667L25.6667 21.4792L25.625 21.4583Z"
                        fill="white" />
                </svg>