<svg width="50" height="50" viewBox="0 0 50 50" fill="none" xmlns="http://www.w3.org/2000/svg">
                    <path
                        d="M48.8398 31.6056C48.1571 29.4311 47.1945 27.2121 45.9871 25.0001C47.1945 22.7882 48.1571 20.5691 48.8398 18.3947C49.6562 15.7481 50.0355 13.499 49.9908 11.1078C49.9098 7.82947 48.8652 5.09396 46.8843 3.11409C43.5718 -0.199377 38.1447 -0.893506 31.6037 1.15862C29.4286 1.84103 27.2105 2.80266 24.9983 4.0103C22.7861 2.80266 20.568 1.84103 18.3928 1.15862C11.8518 -0.893506 6.42572 -0.199377 3.11225 3.11409C-0.201208 6.42657 -0.895337 11.8537 1.15678 18.3947C1.83949 20.5691 2.80209 22.7882 4.00945 25.0001C2.80209 27.2121 1.83949 29.4311 1.15678 31.6056C-0.895337 38.1466 -0.201208 43.5737 3.11225 46.8862C5.17609 48.951 8.06097 49.9985 11.5248 49.9985C13.6199 49.9985 15.9278 49.6148 18.3928 48.8416C20.568 48.1592 22.7861 47.1976 24.9983 45.9899C27.2105 47.1976 29.4286 48.1592 31.6037 48.8416C34.0688 49.6148 36.3767 49.9985 38.4718 49.9985C41.9356 49.9985 44.8205 48.951 46.8843 46.8862C49.048 44.7834 50.1112 41.4691 49.9908 38.0382C49.942 36.0593 49.5603 33.9008 48.8398 31.6056ZM32.4804 3.95368C35.1934 3.12814 37.365 2.77981 39.8191 3.00572C41.9063 3.2244 43.5875 3.95758 44.8137 5.18476C46.0408 6.41095 46.774 8.09209 46.9927 10.1794C47.2182 12.3262 46.8999 14.7952 46.0447 17.518C45.5775 19.0069 44.9654 20.5213 44.223 22.0417C42.2181 18.9435 39.7543 15.906 36.9234 13.075C34.0921 10.2436 31.0545 7.78046 27.9563 5.7756C29.4766 5.03314 30.9911 4.42112 32.4804 3.95368ZM3.95185 17.518C3.09663 14.7952 2.77837 12.3262 3.00389 10.1794C3.22257 8.09209 3.95575 6.41095 5.18292 5.18476C6.40912 3.95758 8.09026 3.2244 10.1775 3.00572C12.6302 2.77971 14.8045 3.12824 17.5162 3.95368C19.0055 4.42112 20.5199 5.03314 22.0403 5.77569C18.9421 7.78056 15.9045 10.2436 13.0731 13.0751C10.2422 15.9061 7.77844 18.9436 5.77357 22.0418C5.03121 20.5213 4.41909 19.0069 3.95185 17.518ZM17.5162 46.0466C14.7933 46.9018 12.3243 47.22 10.1775 46.9945C8.09026 46.7758 6.40912 46.0427 5.18292 44.8155C3.95575 43.5893 3.22257 41.9082 3.00389 39.8209C2.77837 37.6741 3.09663 35.2051 3.95185 32.4823C4.41909 30.9934 5.03121 29.479 5.77357 27.9585C7.77844 31.0567 10.2422 34.0943 13.0731 36.9253C15.9045 39.7566 18.9421 42.2198 22.0403 44.2246C20.5198 44.9671 19.0055 45.5791 17.5162 46.0466ZM15.1438 34.8546C12.0356 31.7464 9.40188 28.3895 7.37905 25.0001C9.40188 21.6107 12.0356 18.2538 15.1438 15.1456C18.2523 12.0372 21.6087 9.40225 24.9983 7.38039C28.3879 9.40225 31.7443 12.0372 34.8528 15.1456C37.961 18.2538 40.5947 21.6107 42.6175 25.0001C40.5947 28.3895 37.961 31.7464 34.8528 34.8546C31.7443 37.963 28.3879 40.598 24.9983 42.6199C21.6087 40.598 18.2523 37.963 15.1438 34.8546ZM46.9927 39.8209C46.774 41.9082 46.0408 43.5893 44.8137 44.8155C43.5875 46.0427 41.9063 46.7758 39.8191 46.9945C37.6722 47.22 35.2032 46.9018 32.4804 46.0466C30.9911 45.5791 29.4766 44.9671 27.9563 44.2246C31.0545 42.2197 34.0921 39.7566 36.9234 36.9253C39.7543 34.0943 42.2181 31.0567 44.223 27.9585C44.9654 29.479 45.5775 30.9934 46.0447 32.4823C46.8999 35.2051 47.2182 37.6741 46.9927 39.8209Z"
                        fill="white" />
                    <path
                        d="M33.9419 19.0457C31.4562 16.5457 27.3526 16.6846 24.9983 19.2907C23.8088 17.9984 22.1677 17.2356 20.4039 17.2445C18.7609 17.2445 17.2164 17.8849 16.0546 19.0457C13.6569 21.4444 13.6569 25.3465 16.0546 27.7443L23.9566 35.6452C24.5239 36.213 25.4679 36.2216 26.0399 35.6452L33.9419 27.7443C35.1407 26.5454 35.7402 24.9707 35.7402 23.395C35.7402 21.8202 35.1407 20.2455 33.9419 19.0457Z"
                        fill="white" />
                </svg>