<svg width="50" height="44" viewBox="0 0 50 44" fill="none" xmlns="http://www.w3.org/2000/svg">
                    <path
                        d="M16.129 41.4008C16.129 42.6681 15.0921 43.705 13.8249 43.705H4.30099C3.0337 43.705 1.99683 42.6681 1.99683 41.4008V30.9553C1.99683 29.688 3.0337 28.6511 4.30099 28.6511H13.8249C15.0921 28.6511 16.129 29.688 16.129 30.9553V41.4008Z"
                        fill="white" />
                    <path
                        d="M33.0646 41.4008C33.0646 42.6681 32.0277 43.7049 30.7604 43.7049H21.2365C19.9692 43.7049 18.9324 42.6681 18.9324 41.4008V25.4253C18.9324 24.158 19.9692 23.1211 21.2365 23.1211H30.7604C32.0277 23.1211 33.0646 24.158 33.0646 25.4253V41.4008Z"
                        fill="white" />
                    <path
                        d="M50.0001 41.4008C50.0001 42.6681 48.9632 43.705 47.6959 43.705H38.1721C36.9048 43.705 35.8679 42.6681 35.8679 41.4008V19.2808C35.8679 18.0136 36.9048 16.9767 38.1721 16.9767H47.6959C48.9632 16.9767 50.0001 18.0136 50.0001 19.2808V41.4008Z"
                        fill="white" />
                    <path
                        d="M48.0068 0.338148L37.6573 2.85614C36.8361 3.05491 36.6531 3.70637 37.2505 4.30376L39.459 6.46061C39.6444 6.67198 39.4244 6.95309 39.2499 7.07214C37.8593 8.02145 35.6524 9.4144 32.6018 11.006C15.9942 19.6707 2.30393 19.1392 2.09809 19.1298C0.999161 19.0741 0.0595237 19.9206 0.00268775 21.0214C-0.0539946 22.1228 0.792708 23.0618 1.8941 23.1185C1.97505 23.1226 2.30424 23.1375 2.8577 23.1375C6.40718 23.1375 19.1575 22.5251 34.4493 14.547C38.0676 12.6593 40.5754 11.0311 42.0398 10.0004C42.2469 9.85464 42.6077 9.60334 42.9407 9.94235L45.3563 12.3577C45.9537 12.9551 46.6019 12.7713 46.7973 11.9493L49.1452 1.47133C49.3403 0.649209 48.8279 0.139375 48.0068 0.338148Z"
                        fill="white" />
                </svg>