<svg width="30" height="30" viewBox="0 0 30 30" fill="none"
                                  xmlns="http://www.w3.org/2000/svg">
                                  <g clip-path="url(#clip0_503_6280)">
                                      <path
                                          d="M14.994 2.70292C19 2.70292 19.4702 2.72078 21.0536 2.79222C22.5179 2.85771 23.3095 3.10181 23.8393 3.31018C24.5417 3.58404 25.0417 3.90554 25.5655 4.42945C26.0893 4.95336 26.4167 5.45346 26.6845 6.15598C26.8869 6.68585 27.1369 7.47767 27.2024 8.94225C27.2738 10.5259 27.2917 10.9962 27.2917 15.003C27.2917 19.0097 27.2738 19.4801 27.2024 21.0637C27.1369 22.5283 26.8929 23.3201 26.6845 23.85C26.4107 24.5525 26.0893 25.0526 25.5655 25.5765C25.0417 26.1004 24.5417 26.4279 23.8393 26.6958C23.3095 26.8982 22.5179 27.1482 21.0536 27.2137C19.4702 27.2852 19 27.303 14.994 27.303C10.9881 27.303 10.5179 27.2852 8.93452 27.2137C7.47024 27.1482 6.67857 26.9041 6.14881 26.6958C5.44643 26.4219 4.94643 26.1004 4.42262 25.5765C3.89881 25.0526 3.57143 24.5525 3.30357 23.85C3.10119 23.3201 2.85119 22.5283 2.78571 21.0637C2.71429 19.4801 2.69643 19.0097 2.69643 15.003C2.69643 10.9962 2.71429 10.5259 2.78571 8.94225C2.85119 7.47767 3.09524 6.68585 3.30357 6.15598C3.57738 5.45346 3.89881 4.95336 4.42262 4.42945C4.94643 3.90554 5.44643 3.57809 6.14881 3.31018C6.67857 3.10776 7.47024 2.85771 8.93452 2.79222C10.5179 2.71482 10.9881 2.70292 14.994 2.70292ZM14.994 0C10.9226 0 10.4107 0.0178607 8.80952 0.0893034C7.21429 0.160746 6.125 0.416749 5.17262 0.78587C4.18452 1.1669 3.35119 1.68486 2.51786 2.51836C1.68452 3.35186 1.17262 4.19131 0.785714 5.17365C0.416667 6.12622 0.160714 7.21572 0.0892857 8.81723C0.0178571 10.4128 0 10.9248 0 14.997C0 19.0693 0.0178571 19.5813 0.0892857 21.1828C0.160714 22.7783 0.416667 23.8678 0.785714 24.8264C1.16667 25.8146 1.68452 26.6481 2.51786 27.4816C3.35119 28.3151 4.19048 28.8271 5.17262 29.2141C6.125 29.5833 7.21429 29.8393 8.81548 29.9107C10.4167 29.9821 10.9226 30 15 30C19.0774 30 19.5833 29.9821 21.1845 29.9107C22.7798 29.8393 23.869 29.5833 24.8274 29.2141C25.8155 28.8331 26.6488 28.3151 27.4821 27.4816C28.3155 26.6481 28.8274 25.8087 29.2143 24.8264C29.5833 23.8738 29.8393 22.7843 29.9107 21.1828C29.9821 19.5813 30 19.0752 30 14.997C30 10.9188 29.9821 10.4128 29.9107 8.81127C29.8393 7.21572 29.5833 6.12622 29.2143 5.16769C28.8333 4.1794 28.3155 3.3459 27.4821 2.5124C26.6488 1.6789 25.8095 1.1669 24.8274 0.779917C23.875 0.410796 22.7857 0.154793 21.1845 0.0833499C19.5774 0.0178607 19.0655 0 14.994 0Z"
                                          fill="#3B3B3B"></path>
                                      <path
                                          d="M15 7.5C10.8617 7.5 7.5 10.8559 7.5 15C7.5 19.1441 10.8617 22.5 15 22.5C19.1383 22.5 22.5 19.1383 22.5 15C22.5 10.8617 19.1383 7.5 15 7.5ZM15 19.8686C12.3107 19.8686 10.1314 17.6893 10.1314 15C10.1314 12.3107 12.3107 10.1314 15 10.1314C17.6893 10.1314 19.8686 12.3107 19.8686 15C19.8686 17.6893 17.6893 19.8686 15 19.8686Z"
                                          fill="#3B3B3B"></path>
                                      <path
                                          d="M22.5 9C23.3284 9 24 8.32843 24 7.5C24 6.67157 23.3284 6 22.5 6C21.6716 6 21 6.67157 21 7.5C21 8.32843 21.6716 9 22.5 9Z"
                                          fill="#3B3B3B"></path>
                                  </g>
                                  <defs>
                                      <clipPath id="clip0_503_6280">
                                          <rect width="30" height="30" fill="white"></rect>
                                      </clipPath>
                                  </defs>
                              </svg>