<svg width="30" height="30" viewBox="0 0 30 30" fill="none"
                                  xmlns="http://www.w3.org/2000/svg">
                                  <path
                                      d="M28.5 5.84202C27.695 7.07106 26.7289 8.11299 25.6018 8.96779C25.6018 9.05164 25.6117 9.182 25.6315 9.3589C25.6512 9.53579 25.6611 9.66616 25.6611 9.75C25.6611 11.3747 25.4295 13 24.9662 14.6258C24.5029 16.2515 23.7986 17.8037 22.8533 19.2822C21.908 20.7607 20.7859 22.0731 19.487 23.2193C18.188 24.3655 16.6283 25.2822 14.8078 25.9693C12.9874 26.6564 11.0301 27 8.93598 27C5.67531 27 2.69665 26.0936 0 24.2807C0.564024 24.3226 1.0268 24.3436 1.38833 24.3436C4.10572 24.3436 6.53122 23.4893 8.66483 21.7807C7.39652 21.7602 6.26452 21.3594 5.26883 20.5782C4.27315 19.797 3.5738 18.7919 3.17078 17.5629C3.51256 17.6467 3.88495 17.6886 4.28796 17.6886C4.83124 17.6886 5.3444 17.6053 5.82742 17.4386C4.4791 17.1472 3.36192 16.4494 2.47588 15.3451C1.58984 14.2408 1.14682 12.9698 1.14682 11.5322V11.4693C1.91136 11.8865 2.78703 12.1155 3.77382 12.1564C2.98854 11.6145 2.36475 10.9008 1.90247 10.0153C1.44019 9.12986 1.20855 8.17689 1.20756 7.15644C1.20756 6.11452 1.45895 5.09356 1.96174 4.09356C3.43057 5.98926 5.2066 7.48415 7.28984 8.57822C9.37307 9.67229 11.6321 10.2817 14.067 10.4064C13.9258 9.88599 13.8551 9.4274 13.8551 9.03067C13.8551 7.36401 14.4285 5.94223 15.5754 4.76534C16.7222 3.58845 18.1209 3 19.7715 3C20.5765 3 21.3514 3.16667 22.0962 3.5C22.841 3.83333 23.4751 4.30215 23.9987 4.90644C25.3272 4.63548 26.5649 4.14571 27.7117 3.43712C27.289 4.85429 26.4336 5.96881 25.1455 6.78067C26.3733 6.61401 27.4905 6.30164 28.497 5.84356L28.5 5.84202Z"
                                      fill="#3B3B3B"></path>
                              </svg>