 <svg width="30" height="30" viewBox="0 0 30 30" fill="none"
                                  xmlns="http://www.w3.org/2000/svg">
                                  <path
                                      d="M1.77823e-06 22.7812C1.77823e-06 23.9527 0.395636 24.9489 1.1869 25.7699C1.97817 26.5909 2.94144 27.001 4.07669 27H25.9233C27.0586 27 28.0218 26.59 28.8131 25.7699C29.6044 24.9499 30 23.9536 30 22.7812V5.78881C30 4.61732 29.6005 3.60964 28.8014 2.76579C28.0023 1.92193 27.043 1.5 25.9233 1.5H4.07669C2.958 1.5 1.99864 1.92193 1.1986 2.76579C0.39856 3.60964 -0.000972691 4.61732 1.77823e-06 5.78881V22.7812ZM10.9116 19.711V8.85898C10.9116 8.74945 10.9438 8.66373 11.0081 8.60183C11.0558 8.58659 11.0958 8.57897 11.1279 8.57897L11.2478 8.60183L21.7034 14.0393C21.7677 14.1021 21.7998 14.1802 21.7998 14.2736C21.7998 14.3364 21.7677 14.3988 21.7034 14.4607L11.2478 19.8982C11.2157 19.9296 11.1835 19.9453 11.1513 19.9453C11.087 19.9453 11.0393 19.9296 11.0081 19.8982C10.9438 19.8353 10.9116 19.7729 10.9116 19.711Z"
                                      fill="#3B3B3B"></path>
                              </svg>