<svg class="d-block mx-auto" width="30" height="31" viewBox="0 0 30 31" fill="none"
                    xmlns="http://www.w3.org/2000/svg">
                    <path
                        d="M16.4667 1H3.57778C2.15411 1 1 2.18034 1 3.63636V27.3636C1 28.8197 2.15411 30 3.57778 30H16.4667C17.8903 30 19.0444 28.8197 19.0444 27.3636V3.63636C19.0444 2.18034 17.8903 1 16.4667 1Z"
                        fill="url(#paint0_linear_479_13086)" stroke="#FAFAFA" stroke-linecap="round"
                        stroke-linejoin="round" />
                    <path d="M1 24.7271H19.0444" stroke="#FAFAFA" stroke-linecap="round"
                        stroke-linejoin="round" />
                    <path d="M3.57812 3.63623H4.86701" stroke="#FAFAFA" stroke-linecap="round"
                        stroke-linejoin="round" />
                    <path d="M7.44531 3.63623H8.7342" stroke="#FAFAFA" stroke-linecap="round"
                        stroke-linejoin="round" />
                    <path
                        d="M20.3347 23.4086C25.3176 23.4086 29.3569 19.2775 29.3569 14.1814C29.3569 9.08529 25.3176 4.9541 20.3347 4.9541C15.3519 4.9541 11.3125 9.08529 11.3125 14.1814C11.3125 19.2775 15.3519 23.4086 20.3347 23.4086Z"
                        fill="url(#paint1_linear_479_13086)" />
                    <path
                        d="M20.3307 4.29492C18.4188 4.29492 16.5499 4.87475 14.9602 5.96107C13.3705 7.0474 12.1315 8.59144 11.3999 10.3979C10.6683 12.2044 10.4768 14.1923 10.8498 16.11C11.2228 18.0278 12.1435 19.7894 13.4954 21.172C14.8473 22.5546 16.5697 23.4962 18.4449 23.8777C20.32 24.2592 22.2637 24.0634 24.03 23.3151C25.7964 22.5668 27.3061 21.2997 28.3683 19.6739C29.4305 18.048 29.9974 16.1366 29.9974 14.1813C29.9946 11.5601 28.9752 9.04719 27.163 7.19377C25.3507 5.34034 22.8936 4.29782 20.3307 4.29492ZM20.3307 22.7495C18.6738 22.7495 17.054 22.247 15.6763 21.3055C14.2986 20.364 13.2248 19.0258 12.5907 17.4602C11.9566 15.8946 11.7907 14.1718 12.1139 12.5097C12.4372 10.8477 13.2351 9.32095 14.4067 8.12267C15.5784 6.92438 17.0712 6.10834 18.6963 5.77774C20.3214 5.44713 22.0059 5.61681 23.5368 6.26532C25.0676 6.91382 26.376 8.01203 27.2966 9.42106C28.2172 10.8301 28.7085 12.4867 28.7085 14.1813C28.7059 16.4529 27.8225 18.6307 26.2519 20.237C24.6813 21.8433 22.5519 22.7468 20.3307 22.7495Z"
                        fill="#FAFAFA" />
                    <path
                        d="M20.3318 16.1587C19.9494 16.1587 19.5756 16.2747 19.2577 16.492C18.9397 16.7093 18.6919 17.0181 18.5456 17.3794C18.3993 17.7408 18.361 18.1384 18.4356 18.522C18.5102 18.9056 18.6943 19.258 18.9647 19.5345C19.2351 19.8111 19.5796 19.9994 19.9546 20.0757C20.3296 20.152 20.7184 20.1129 21.0716 19.9632C21.4249 19.8135 21.7268 19.5601 21.9393 19.2349C22.1517 18.9097 22.2651 18.5273 22.2651 18.1362C22.2645 17.6119 22.0606 17.1093 21.6982 16.7385C21.3358 16.3678 20.8443 16.1593 20.3318 16.1587ZM20.3318 18.7954C20.2043 18.7954 20.0797 18.7567 19.9737 18.6843C19.8678 18.6119 19.7852 18.5089 19.7364 18.3885C19.6876 18.268 19.6748 18.1355 19.6997 18.0076C19.7246 17.8797 19.786 17.7623 19.8761 17.6701C19.9662 17.5779 20.081 17.5151 20.206 17.4897C20.3311 17.4643 20.4606 17.4773 20.5784 17.5272C20.6961 17.5771 20.7968 17.6616 20.8676 17.77C20.9384 17.8784 20.9762 18.0058 20.9762 18.1362C20.976 18.311 20.908 18.4785 20.7872 18.6021C20.6664 18.7257 20.5026 18.7952 20.3318 18.7954Z"
                        fill="#FAFAFA" />
                    <path
                        d="M20.3316 12.2041C19.7328 12.2127 19.1437 12.3595 18.6081 12.6334C18.0725 12.9073 17.6043 13.3013 17.2383 13.7861C17.1357 13.926 17.0917 14.1018 17.1159 14.2748C17.14 14.4479 17.2304 14.6041 17.3672 14.709C17.5039 14.8139 17.6758 14.8589 17.845 14.8342C18.0142 14.8094 18.1668 14.717 18.2694 14.5771C18.5096 14.2498 18.821 13.9841 19.1789 13.8011C19.5368 13.6181 19.9315 13.5229 20.3316 13.5229C20.7317 13.5229 21.1264 13.6181 21.4843 13.8011C21.8422 13.9841 22.1536 14.2498 22.3938 14.5771C22.4446 14.6464 22.5082 14.7047 22.581 14.7488C22.6539 14.7929 22.7345 14.8219 22.8182 14.8342C22.902 14.8464 22.9873 14.8417 23.0693 14.8202C23.1513 14.7987 23.2283 14.7609 23.296 14.709C23.3637 14.657 23.4208 14.5919 23.4639 14.5175C23.507 14.443 23.5354 14.3605 23.5473 14.2748C23.5593 14.1891 23.5547 14.1019 23.5337 14.018C23.5127 13.9342 23.4757 13.8554 23.4249 13.7861C23.0591 13.3012 22.5909 12.907 22.0552 12.6331C21.5196 12.3591 20.9304 12.2125 20.3316 12.2041Z"
                        fill="#FAFAFA" />
                    <path
                        d="M20.3312 8.24951C19.2335 8.26533 18.1535 8.53435 17.1715 9.03654C16.1896 9.53872 15.3311 10.2611 14.6601 11.1499C14.6094 11.2191 14.5724 11.2979 14.5514 11.3818C14.5304 11.4656 14.5258 11.5529 14.5377 11.6386C14.5497 11.7243 14.578 11.8067 14.6212 11.8812C14.6643 11.9557 14.7213 12.0208 14.789 12.0727C14.8567 12.1247 14.9338 12.1624 15.0158 12.1839C15.0977 12.2054 15.1831 12.2102 15.2668 12.1979C15.3506 12.1857 15.4312 12.1567 15.504 12.1126C15.5769 12.0685 15.6405 12.0101 15.6912 11.9409C16.2455 11.2196 16.949 10.6328 17.7513 10.2225C18.5535 9.81222 19.4346 9.58866 20.3312 9.56786C21.2279 9.58861 22.109 9.81215 22.9113 10.2224C23.7135 10.6327 24.417 11.2196 24.9712 11.9409C25.022 12.0101 25.0856 12.0685 25.1585 12.1126C25.2313 12.1567 25.3119 12.1857 25.3957 12.1979C25.4794 12.2102 25.5648 12.2054 25.6467 12.1839C25.7287 12.1624 25.8058 12.1247 25.8735 12.0727C25.9412 12.0208 25.9982 11.9557 26.0413 11.8812C26.0844 11.8067 26.1128 11.7243 26.1248 11.6386C26.1367 11.5529 26.1321 11.4656 26.1111 11.3818C26.0901 11.2979 26.0531 11.2191 26.0024 11.1499C25.3313 10.2612 24.4728 9.53883 23.4909 9.03666C22.509 8.53448 21.429 8.26541 20.3312 8.24951Z"
                        fill="#FAFAFA" />
                    <path
                        d="M25.6635 18.1357C24.9335 18.1357 24.2199 18.3572 23.613 18.772C23.006 19.1868 22.533 19.7764 22.2536 20.4662C21.9743 21.1561 21.9012 21.9151 22.0436 22.6475C22.186 23.3798 22.5375 24.0525 23.0537 24.5804C23.5699 25.1084 24.2275 25.468 24.9435 25.6136C25.6594 25.7593 26.4015 25.6845 27.076 25.3988C27.7504 25.1131 28.3268 24.6292 28.7324 24.0084C29.1379 23.3875 29.3544 22.6576 29.3544 21.911C29.3543 20.9097 28.9655 19.9495 28.2733 19.2415C27.5812 18.5335 26.6424 18.1358 25.6635 18.1357Z"
                        fill="url(#paint2_linear_479_13086)" />
                    <path
                        d="M25.6637 17.4771C24.8062 17.4771 23.9679 17.7372 23.2549 18.2245C22.5419 18.7118 21.9862 19.4044 21.6581 20.2148C21.33 21.0252 21.2441 21.9168 21.4115 22.7771C21.5788 23.6374 21.9918 24.4275 22.5982 25.0477C23.2046 25.6679 23.9772 26.0902 24.8183 26.2612C25.6593 26.4323 26.5311 26.3443 27.3233 26.0086C28.1155 25.6728 28.7926 25.1043 29.2689 24.375C29.7452 23.6456 29.9994 22.7882 29.9993 21.911C29.998 20.7354 29.5407 19.6082 28.7279 18.777C27.9151 17.9457 26.8131 17.4782 25.6637 17.4771ZM25.6637 25.0279C25.0611 25.0279 24.4721 24.8451 23.9711 24.5027C23.4701 24.1603 23.0796 23.6736 22.849 23.1042C22.6184 22.5348 22.558 21.9083 22.6755 21.3038C22.793 20.6993 23.0832 20.144 23.5092 19.7082C23.9352 19.2724 24.478 18.9755 25.069 18.8552C25.66 18.7349 26.2725 18.7965 26.8292 19.0323C27.386 19.2681 27.8618 19.6675 28.1967 20.1799C28.5315 20.6923 28.7103 21.2947 28.7104 21.911C28.7097 22.7374 28.3884 23.5296 27.8173 24.114C27.2461 24.6983 26.4715 25.027 25.6637 25.0279Z"
                        fill="#FAFAFA" />
                    <path
                        d="M26.4365 20.6062L25.2522 21.8178L24.8872 21.4444C24.8276 21.3819 24.7565 21.3321 24.678 21.298C24.5995 21.2638 24.5151 21.2459 24.4298 21.2454C24.3445 21.2448 24.2599 21.2616 24.181 21.2947C24.1021 21.3279 24.0304 21.3767 23.97 21.4384C23.9097 21.5001 23.8619 21.5734 23.8295 21.6542C23.7971 21.7349 23.7807 21.8214 23.7813 21.9087C23.7818 21.9959 23.7993 22.0822 23.8327 22.1625C23.8661 22.2428 23.9147 22.3156 23.9758 22.3765L24.7964 23.2159C24.9173 23.3395 25.0812 23.4089 25.2521 23.4089C25.423 23.4089 25.5869 23.3395 25.7078 23.2159L27.3478 21.5384C27.4089 21.4775 27.4575 21.4048 27.4909 21.3245C27.5243 21.2442 27.5418 21.1579 27.5424 21.0706C27.5429 20.9834 27.5265 20.8969 27.4941 20.8161C27.4617 20.7354 27.414 20.662 27.3536 20.6003C27.2933 20.5386 27.2216 20.4898 27.1427 20.4566C27.0638 20.4235 26.9792 20.4067 26.8939 20.4072C26.8086 20.4078 26.7242 20.4257 26.6457 20.4598C26.5672 20.494 26.4961 20.5437 26.4365 20.6062Z"
                        fill="#FAFAFA" />
                    <defs>
                        <linearGradient id="paint0_linear_479_13086" x1="7.35315" y1="-7.60938" x2="19.5525"
                            y2="25.5219" gradientUnits="userSpaceOnUse">
                            <stop stop-color="#832FBD" />
                            <stop offset="1" stop-color="#D06852" />
                        </linearGradient>
                        <linearGradient id="paint1_linear_479_13086" x1="17.6656" y1="-0.524592" x2="22.9837"
                            y2="22.1713" gradientUnits="userSpaceOnUse">
                            <stop stop-color="#832FBD" />
                            <stop offset="1" stop-color="#D06852" />
                        </linearGradient>
                        <linearGradient id="paint2_linear_479_13086" x1="24.5716" y1="15.8942" x2="26.7477"
                            y2="25.1798" gradientUnits="userSpaceOnUse">
                            <stop stop-color="#832FBD" />
                            <stop offset="1" stop-color="#D06852" />
                        </linearGradient>
                    </defs>
                </svg>