<svg class="d-block mx-auto" width="29" height="29" viewBox="0 0 29 29" fill="none"
                    xmlns="http://www.w3.org/2000/svg">
                    <g clip-path="url(#clip0_479_13109)">
                        <path
                            d="M26.3718 12.4971V12.4926C25.9541 10.0274 24.7796 7.75323 23.0112 5.98563C21.2428 4.21803 18.9681 3.04457 16.5027 2.62802C16.4298 2.14912 16.1876 1.71221 15.8202 1.39651C15.4527 1.08081 14.9843 0.907227 14.4999 0.907227C14.0155 0.907227 13.5471 1.08081 13.1796 1.39651C12.8122 1.71221 12.57 2.14912 12.4971 2.62802C10.0317 3.04457 7.75703 4.21803 5.98862 5.98563C4.22021 7.75323 3.0457 10.0274 2.62802 12.4926V12.4971C2.14912 12.57 1.71221 12.8122 1.39651 13.1796C1.08081 13.5471 0.907227 14.0155 0.907227 14.4999C0.907227 14.9843 1.08081 15.4527 1.39651 15.8202C1.71221 16.1876 2.14912 16.4297 2.62802 16.5027V16.5072C3.04402 18.9736 4.21788 21.2492 5.98651 23.0178C7.75513 24.7864 10.0307 25.9603 12.4971 26.3763C12.5707 26.8547 12.8131 27.291 13.1805 27.6061C13.5478 27.9213 14.0159 28.0946 14.4999 28.0946C14.9839 28.0946 15.452 27.9213 15.8193 27.6061C16.1867 27.291 16.4291 26.8547 16.5027 26.3763C17.1908 26.2642 17.8672 26.0898 18.5236 25.8552C18.5798 25.8353 18.6314 25.8044 18.6755 25.7643C18.7196 25.7243 18.7554 25.6759 18.7807 25.622C18.806 25.568 18.8203 25.5096 18.8228 25.4501C18.8254 25.3906 18.8161 25.3311 18.7955 25.2752C18.7784 25.2302 18.7555 25.1876 18.7276 25.1483C18.7121 25.1306 18.6954 25.114 18.6777 25.0985C18.6171 25.0413 18.5418 25.002 18.4601 24.9852C18.3785 24.9684 18.2938 24.9747 18.2155 25.0033C17.6377 25.2087 17.0435 25.3648 16.4393 25.4701C16.3121 25.0543 16.0548 24.6903 15.7053 24.4317C15.3557 24.1731 14.9324 24.0335 14.4976 24.0335C14.0628 24.0335 13.6395 24.1731 13.29 24.4317C12.9405 24.6903 12.6832 25.0543 12.556 25.4701C10.3076 25.0717 8.23601 23.9916 6.62218 22.3762C5.00836 20.7607 3.93034 18.6881 3.53427 16.4393C3.94902 16.3117 4.31194 16.0545 4.56975 15.7054C4.82756 15.3563 4.96667 14.9338 4.96667 14.4999C4.96667 14.066 4.82756 13.6434 4.56975 13.2944C4.31194 12.9453 3.94902 12.6881 3.53427 12.5605C3.9344 10.3132 5.01443 8.24266 6.62854 6.62854C8.24266 5.01443 10.3132 3.9344 12.5605 3.53427C12.6881 3.94902 12.9453 4.31194 13.2944 4.56975C13.6435 4.82756 14.066 4.96667 14.4999 4.96667C14.9338 4.96667 15.3563 4.82756 15.7054 4.56975C16.0545 4.31194 16.3117 3.94902 16.4393 3.53427C18.6866 3.9344 20.7571 5.01443 22.3713 6.62854C23.9854 8.24266 25.0654 10.3132 25.4655 12.5605C25.0508 12.6881 24.6879 12.9453 24.43 13.2944C24.1722 13.6434 24.0331 14.066 24.0331 14.4999C24.0331 14.9338 24.1722 15.3563 24.43 15.7054C24.6879 16.0545 25.0508 16.3117 25.4655 16.4393C25.2412 17.7527 24.7774 19.0137 24.0971 20.1594C24.0588 20.2272 24.0375 20.3032 24.035 20.381V18.8087L20.6171 17.6786L17.2001 18.8087V21.7386C17.1954 22.4874 17.3899 23.224 17.7638 23.8728C18.3923 24.9427 19.2965 25.8244 20.3819 26.4257C20.454 26.4654 20.5349 26.4862 20.6171 26.4862C20.6993 26.4862 20.7802 26.4654 20.8523 26.4257C21.9382 25.8246 22.8429 24.9429 23.4718 23.8728C23.8455 23.2239 24.0399 22.4873 24.035 21.7386V20.4005C24.0372 20.4772 24.0585 20.5521 24.0971 20.6184C24.1356 20.6847 24.1902 20.7403 24.2557 20.7802C24.3252 20.8226 24.4053 20.8446 24.4868 20.8436C24.5653 20.843 24.6423 20.8222 24.7105 20.7834C24.7787 20.7445 24.8359 20.6888 24.8765 20.6216C25.6278 19.3557 26.135 17.9601 26.3718 16.5072C26.8513 16.4342 27.2887 16.1918 27.6048 15.824C27.9209 15.4561 28.0947 14.9872 28.0947 14.5022C28.0947 14.0172 27.9209 13.5482 27.6048 13.1804C27.2887 12.8125 26.8513 12.5701 26.3718 12.4971ZM23.064 20.5876L20.4571 23.194C20.3722 23.279 20.2569 23.3267 20.1368 23.3267C20.0166 23.3267 19.9014 23.279 19.8164 23.194L18.5975 21.9765C18.5542 21.9347 18.5197 21.8847 18.496 21.8294C18.4722 21.7741 18.4597 21.7146 18.4592 21.6545C18.4587 21.5943 18.4701 21.5346 18.4929 21.479C18.5157 21.4233 18.5493 21.3727 18.5919 21.3301C18.6344 21.2876 18.685 21.2539 18.7407 21.2312C18.7964 21.2084 18.8561 21.1969 18.9162 21.1974C18.9764 21.1979 19.0359 21.2104 19.0911 21.2342C19.1464 21.2579 19.1964 21.2925 19.2382 21.3357L20.135 22.232L22.421 19.9465C22.506 19.8612 22.6214 19.8132 22.7418 19.813C22.8622 19.8129 22.9778 19.8605 23.0631 19.9456C23.1483 20.0306 23.1963 20.146 23.1965 20.2664C23.1967 20.3868 23.149 20.5024 23.064 20.5876Z"
                            fill="url(#paint0_linear_479_13109)" />
                        <path
                            d="M16.2944 18.481C16.2944 18.3858 16.3244 18.2931 16.3801 18.2159C16.4359 18.1387 16.5145 18.081 16.6048 18.051L20.4754 16.7709C20.5677 16.7397 20.6677 16.7397 20.76 16.7709L21.5076 17.0179C21.8014 16.2108 21.9523 15.3588 21.9535 14.4999C21.9535 14.2765 21.9413 14.0531 21.9213 13.8302C21.8059 13.8578 21.6879 13.873 21.5693 13.8755C21.3899 13.877 21.2124 13.8394 21.0491 13.7654C20.7388 13.6082 20.5033 13.3347 20.3938 13.0046C20.3274 12.804 20.1992 12.6295 20.0277 12.5061C19.6306 12.3182 19.1788 12.2808 18.7563 12.401C18.2352 12.4767 17.6461 12.5623 17.2655 12.0906C17.1839 11.9817 17.1261 11.8568 17.0958 11.7241C17.0656 11.5914 17.0634 11.4539 17.0897 11.3203C17.0974 11.1889 17.1087 11.0117 17.1046 10.758C17.0951 9.89704 17.0851 9.08731 16.7376 8.7316C16.5136 8.55228 16.2276 8.46902 15.9423 8.50006C15.7258 8.52196 15.5071 8.49007 15.3058 8.40724C15.1045 8.3244 14.9267 8.19317 14.7882 8.02518C14.6983 7.88145 14.6393 7.72049 14.6152 7.55264C14.5911 7.38479 14.6023 7.21376 14.6482 7.05051C14.5993 7.05051 14.549 7.04688 14.501 7.04688C12.9895 7.04442 11.5135 7.5049 10.2715 8.36638C10.318 8.80082 10.4833 9.21406 10.7491 9.56082C11.0522 9.89488 11.4278 10.1551 11.847 10.3216C12.1334 10.4134 12.3957 10.5681 12.6146 10.7743C12.8336 10.9805 13.0037 11.233 13.1126 11.5133C13.2276 11.974 13.1675 12.461 12.944 12.88C12.8081 13.2116 12.7392 13.3952 12.8316 13.6118C12.9082 13.7903 13.0265 13.8501 13.2848 13.9684C13.6547 14.1064 13.9734 14.3545 14.1978 14.6793C14.6396 15.3617 14.438 16.0237 14.2608 16.6083C14.0755 17.0231 14.0375 17.4888 14.153 17.9282C14.414 18.6301 15.3519 19.2255 16.2935 19.3329L16.2944 18.481Z"
                            fill="url(#paint1_linear_479_13109)" />
                        <path
                            d="M12.2442 11.7718C12.1599 11.4872 11.9157 11.3581 11.4544 11.1374C10.915 10.9158 10.4343 10.5725 10.0497 10.1342C9.78269 9.79801 9.5894 9.40942 9.4824 8.99365C8.71189 9.68852 8.09662 10.5381 7.67679 11.4869C7.25695 12.4358 7.04199 13.4625 7.04595 14.5C7.04519 15.6319 7.30236 16.749 7.79792 17.7665C8.29349 18.7841 9.01442 19.6754 9.90597 20.3726C10.7975 21.0699 11.8362 21.5548 12.9432 21.7906C14.0502 22.0263 15.1964 22.0067 16.2947 21.7333V20.2352C14.9775 20.1192 13.6965 19.2964 13.3041 18.2415C13.1147 17.6169 13.1467 16.9461 13.3947 16.3424C13.5583 15.8032 13.6407 15.4815 13.44 15.1711C13.3063 14.9933 13.1215 14.8605 12.9103 14.7905C12.7105 14.722 12.5266 14.6136 12.3701 14.4718C12.2135 14.3301 12.0874 14.1579 11.9995 13.9658C11.9125 13.7329 11.8771 13.4838 11.8958 13.2359C11.9145 12.988 11.9869 12.7471 12.1078 12.5298C12.2439 12.3021 12.2924 12.0326 12.2442 11.7718Z"
                            fill="url(#paint2_linear_479_13109)" />
                        <path
                            d="M17.9844 11.5296C18.198 11.5598 18.4154 11.5505 18.6256 11.5019C19.2672 11.3393 19.9466 11.4269 20.526 11.7471C20.8441 11.9636 21.0872 12.2736 21.2215 12.6343C21.3171 12.8472 21.3511 12.9061 21.4272 12.9401C21.5433 12.9763 21.668 12.9731 21.782 12.9311C21.4621 11.4441 20.6945 10.0908 19.5824 9.05328C18.4703 8.0157 17.0671 7.34362 15.5615 7.12744C15.4972 7.34993 15.5094 7.47408 15.5371 7.51486C15.5765 7.57332 15.804 7.58465 15.987 7.59371C16.242 7.58033 16.4971 7.61806 16.7373 7.70467C16.9775 7.79127 17.198 7.92502 17.3858 8.09804C17.9867 8.71247 17.9984 9.69983 18.0102 10.7452C18.0148 11.0284 18.0025 11.2273 17.9935 11.375C17.9894 11.4394 17.9839 11.4888 17.9844 11.5296Z"
                            fill="url(#paint3_linear_479_13109)" />
                    </g>
                    <defs>
                        <linearGradient id="paint0_linear_479_13109" x1="10.4795" y1="-7.16401" x2="18.1575"
                            y2="26.3484" gradientUnits="userSpaceOnUse">
                            <stop stop-color="#832FBD" />
                            <stop offset="1" stop-color="#D06852" />
                        </linearGradient>
                        <linearGradient id="paint1_linear_479_13109" x1="14.3845" y1="3.39946" x2="18.0145"
                            y2="18.4641" gradientUnits="userSpaceOnUse">
                            <stop stop-color="#832FBD" />
                            <stop offset="1" stop-color="#D06852" />
                        </linearGradient>
                        <linearGradient id="paint2_linear_479_13109" x1="10.3022" y1="5.14606" x2="15.196"
                            y2="20.389" gradientUnits="userSpaceOnUse">
                            <stop stop-color="#832FBD" />
                            <stop offset="1" stop-color="#D06852" />
                        </linearGradient>
                        <linearGradient id="paint3_linear_479_13109" x1="17.7213" y1="5.39439" x2="19.2671"
                            y2="12.638" gradientUnits="userSpaceOnUse">
                            <stop stop-color="#832FBD" />
                            <stop offset="1" stop-color="#D06852" />
                        </linearGradient>
                        <clipPath id="clip0_479_13109">
                            <rect width="29" height="29" fill="white" />
                        </clipPath>
                    </defs>
                </svg>