<svg class="d-block mx-auto" width="29" height="29" viewBox="0 0 29 29" fill="none"
                    xmlns="http://www.w3.org/2000/svg">
                    <path
                        d="M28.9901 5.5626C28.9901 9.96847 27.0694 13.1694 26.9886 13.3029C26.8259 13.5688 26.5443 13.7146 26.2537 13.7146C26.1011 13.7146 25.9474 13.6742 25.8083 13.5901C25.4022 13.3433 25.272 12.8148 25.5177 12.4087C25.5357 12.3795 27.2691 9.46584 27.2691 5.5626C27.2691 3.33666 25.8218 1.72106 23.8269 1.72106C21.9286 1.72106 20.3848 3.26486 20.3848 5.16431C20.3848 5.97323 20.7764 8.02863 20.9267 8.75228C21.0243 9.21789 20.7248 9.6734 20.2592 9.77101C19.7936 9.86637 19.3381 9.56906 19.2416 9.10457C19.1821 8.82072 18.6615 6.29747 18.6615 5.16431C18.6615 2.31681 20.9783 0 23.8269 0C26.7698 0 28.9901 2.39086 28.9901 5.5626ZM23.9728 6.91678C24.315 9.77662 24.8109 15.3493 24.2409 15.917L11.7358 28.4233C10.9672 29.193 9.7185 29.193 8.94885 28.4222L0.587006 20.0615C-0.182648 19.2929 -0.182648 18.0442 0.587006 17.2746L13.0933 4.76938C13.2919 4.5708 15.455 4.56182 17.8874 4.6886C17.8739 4.84904 17.8391 5.0005 17.8391 5.16431C17.8391 5.78811 17.9771 6.75522 18.1219 7.60566C17.8672 7.98375 17.718 8.43814 17.718 8.92843C17.718 10.2344 18.7771 11.2935 20.083 11.2935C21.389 11.2935 22.4481 10.2344 22.4481 8.92843C22.4481 8.12399 22.0453 7.41493 21.4316 6.98859C21.3059 6.24025 21.205 5.51772 21.205 5.16431C21.205 5.08802 21.2207 5.01733 21.2274 4.94216C21.527 4.97358 21.822 5.00611 22.1014 5.04089C23.754 5.24397 23.7709 5.2406 23.9728 6.91678ZM17.3073 16.276C17.1132 15.7364 16.7901 15.089 16.0889 14.3441L17.0381 13.3938L15.9812 12.338L14.9569 13.3635C13.5858 12.4244 12.1722 12.5007 11.2129 13.46C10.1673 14.5056 10.4141 15.8329 11.1815 17.3755C11.7088 18.4436 11.8053 19.0585 11.3958 19.468C10.9751 19.8887 10.2963 19.7058 9.68036 19.091C8.98027 18.3909 8.56963 17.5259 8.36544 16.8247L6.77901 17.7649C6.96301 18.3999 7.45891 19.3053 8.159 20.0503L7.12457 21.0858L8.18032 22.1427L9.29217 21.032C10.7585 22.0664 12.2373 21.9273 13.1965 20.968C14.1782 19.9841 14.2646 18.8846 13.4232 17.1377C12.8398 15.8856 12.6995 15.2708 13.0451 14.9263C13.348 14.6234 13.8865 14.537 14.5877 15.2382C15.3652 16.0157 15.6233 16.7708 15.7635 17.1702L17.3073 16.276Z"
                        fill="url(#paint0_linear_479_13122)" />
                    <defs>
                        <linearGradient id="paint0_linear_479_13122" x1="10.2133" y1="-8.6095" x2="18.4085"
                            y2="27.1354" gradientUnits="userSpaceOnUse">
                            <stop stop-color="#832FBD" />
                            <stop offset="1" stop-color="#D06852" />
                        </linearGradient>
                    </defs>
                </svg>