<svg class="d-block mx-auto" width="29" height="29" viewBox="0 0 29 29" fill="none"
                    xmlns="http://www.w3.org/2000/svg">
                    <path
                        d="M21.75 14.4951V6.03678C21.75 2.70541 19.0397 -0.00488281 15.7083 -0.00488281H6.04167C2.71029 -0.00488281 0 2.70541 0 6.03678V21.5687C0 22.5269 0.525625 23.4042 1.37025 23.8573C1.7545 24.0639 2.17621 24.1654 2.59671 24.1654C3.09938 24.1654 3.60083 24.0192 4.03583 23.7304L8.82446 20.5368H15.7083C19.0397 20.5368 21.75 17.8265 21.75 14.4951ZM10.875 16.9166C10.208 16.9166 9.66667 16.3753 9.66667 15.7083C9.66667 15.0413 10.208 14.5 10.875 14.5C11.542 14.5 12.0833 15.0413 12.0833 15.7083C12.0833 16.3753 11.542 16.9166 10.875 16.9166ZM12.6235 11.635C12.0833 11.9322 12.0833 12.0192 12.0833 12.0833C12.0833 12.7515 11.542 13.2916 10.875 13.2916C10.208 13.2916 9.66667 12.7515 9.66667 12.0833C9.66667 10.5028 10.9209 9.81283 11.4562 9.51799C11.8066 9.32587 12.1752 8.87153 12.0628 8.22991C11.9794 7.75624 11.577 7.35387 11.1046 7.2717C10.7348 7.20403 10.3772 7.29828 10.0992 7.5327C9.82375 7.76228 9.66667 8.10062 9.66667 8.45949C9.66667 9.1277 9.12533 9.66783 8.45833 9.66783C7.79133 9.66783 7.25 9.1277 7.25 8.45949C7.25 7.38528 7.72246 6.3727 8.54533 5.68153C9.36821 4.99037 10.4509 4.69795 11.5215 4.89249C12.9823 5.14745 14.1846 6.34853 14.442 7.81303C14.7115 9.35003 13.9804 10.8858 12.6223 11.6362L12.6235 11.635ZM29 10.8701V26.402C29 27.3602 28.4744 28.2375 27.6297 28.6906C27.2455 28.8972 26.8238 28.9987 26.4033 29C25.9006 29 25.3992 28.8537 24.9654 28.565L20.1755 25.3701H13.2917C11.5396 25.3701 9.97238 24.6077 8.86796 23.4126L9.5555 22.9535H15.7083C20.3713 22.9535 24.1667 19.1581 24.1667 14.4951V6.03678C24.1667 5.66462 24.134 5.30212 24.0881 4.94203C26.8806 5.4737 29 7.92541 29 10.8701Z"
                        fill="url(#paint0_linear_479_13130)" />
                    <defs>
                        <linearGradient id="paint0_linear_479_13130" x1="10.2104" y1="-8.61569" x2="18.403"
                            y2="27.1365" gradientUnits="userSpaceOnUse">
                            <stop stop-color="#832FBD" />
                            <stop offset="1" stop-color="#D06852" />
                        </linearGradient>
                    </defs>
                </svg>