<svg width="40" height="40" viewBox="0 0 40 40" fill="none" xmlns="http://www.w3.org/2000/svg">
<g clip-path="url(#clip0_0_1)">
<path d="M0 0H40V40H0V0Z" fill="url(#paint0_linear_0_1)"/>
</g>
<g clip-path="url(#clip1_0_1)">
<path d="M22.8516 30H21.3914C20.693 30 20.0609 29.5866 19.781 28.9467L17.9 24.6081C17.8209 24.4256 17.8397 24.2155 17.95 24.05C17.9539 24.044 18.4766 23.2329 18.4766 22.1875C18.4766 21.685 17.9862 21.2398 17.7973 21.1107C17.6343 21.0021 17.5391 20.8209 17.5391 20.625V19.7068L16.3403 18.9875C16.2126 18.9813 15.7159 19.0049 14.6532 19.5782C13.9285 19.9692 13.129 19.9456 12.4021 19.5118C11.3142 18.8626 10.6641 17.5024 10.6641 16.5625V13.75C10.6641 12.9826 11.0754 12.2445 11.7136 11.8639L14.3625 10.0984C14.4588 10.0342 14.5718 10 14.6875 10H18.4375C18.662 10 18.8668 10.1283 18.9647 10.3303L19.4296 11.2891H20.6948L21.1482 10.8357C21.258 10.7258 21.4071 10.6641 21.5625 10.6641H23.75C23.9628 10.6641 24.1589 10.7794 24.2622 10.9655L27.2198 16.2891H28.75C29.0736 16.2891 29.3359 16.5514 29.3359 16.875V17.5C29.3359 18.4376 28.775 19.0719 28.2325 19.6854C27.675 20.3159 27.1484 20.9114 27.1484 21.875V23.75C27.1484 23.9558 27.0404 24.1465 26.864 24.2524C26.2675 24.6112 25.6679 25.1213 25.5862 25.337C25.5935 25.7711 25.7914 26.4579 25.8685 26.69C25.9284 26.8705 25.8971 27.0691 25.7845 27.2223L24.2611 29.2926C23.9148 29.7517 23.3873 30 22.8516 30Z" fill="#FAFAFA"/>
</g>
<defs>
<linearGradient id="paint0_linear_0_1" x1="14.0833" y1="-11.875" x2="25.3798" y2="37.4309" gradientUnits="userSpaceOnUse">
<stop stop-color="#832FBD"/>
<stop offset="1" stop-color="#D06852"/>
</linearGradient>
<clipPath id="clip0_0_1">
<rect width="40" height="40" rx="20" fill="white"/>
</clipPath>
<clipPath id="clip1_0_1">
<rect width="20" height="20" fill="white" transform="translate(10 10)"/>
</clipPath>
</defs>
</svg>
