<svg width="40" height="40" viewBox="0 0 40 40" fill="none" xmlns="http://www.w3.org/2000/svg">
<g clip-path="url(#clip0_0_1)">
<path d="M0 0H40V40H0V0Z" fill="url(#paint0_linear_0_1)"/>
</g>
<g clip-path="url(#clip1_0_1)">
<path d="M28.7662 20.2618L29.9381 19.0899C30.029 18.9086 30.0192 18.6928 29.9123 18.5201C29.8053 18.3472 29.617 18.2419 29.4139 18.2419H21.7578V20.5857H28.242C28.4641 20.5857 28.6665 20.4604 28.7662 20.2618Z" fill="#FAFAFA"/>
<path d="M11.2338 20.2618C11.3333 20.4604 11.5359 20.5857 11.7579 20.5857H18.2422V18.2419H10.5861C10.383 18.2419 10.1947 18.3472 10.0877 18.5201C9.98074 18.6928 9.97098 18.9086 10.0619 19.0899L11.2338 20.2618Z" fill="#FAFAFA"/>
<path d="M29.4138 28.8668H28.8278V26.484H29.4138C29.7418 26.484 29.9997 26.2263 29.9997 25.898C29.9997 25.57 29.7418 25.3121 29.4138 25.3121H26.445V28.8668H25.2731V21.7576H22.9295V28.8668H17.0702V21.7576H14.7266V28.8668H13.5547V25.3121H10.5859C10.2577 25.3121 10 25.57 10 25.898C10 26.2263 10.2577 26.484 10.5859 26.484H11.1719V28.8668H10.5859C10.2621 28.8668 10 29.1288 10 29.4527C10 29.7765 10.2621 30.0387 10.5859 30.0387H29.4138C29.7376 30.0387 29.9997 29.7765 29.9997 29.4527C29.9997 29.1288 29.7376 28.8668 29.4138 28.8668Z" fill="#FAFAFA"/>
<path d="M13.4526 13.5547H26.5471C28.1304 13.5547 29.565 12.3077 29.9793 10.7794C30.033 10.5809 29.9793 10.3685 29.8367 10.2203C29.6948 10.0716 29.4866 10.0069 29.2841 10.0545C26.6382 10.6552 23.0794 11.1932 19.9999 11.1932C16.9203 11.1932 13.3615 10.6549 10.7156 10.0542C10.5131 10.0072 10.3049 10.0719 10.163 10.22C10.0204 10.3684 9.96673 10.5806 10.0204 10.7791C10.4347 12.3074 11.8694 13.5547 13.4526 13.5547Z" fill="#FAFAFA"/>
<path d="M20.5858 20.5858V15.8983H22.9295V17.0702H25.2731V15.8983H27.07C27.394 15.8983 27.656 15.6363 27.656 15.3124V14.5708C27.307 14.6624 26.9119 14.7264 26.5469 14.7264H13.4528C13.0878 14.7264 12.7318 14.6624 12.3828 14.5708V15.3124C12.3828 15.6363 12.6448 15.8983 12.9688 15.8983H14.7266V17.0702H17.0702V15.8983H19.4139V20.5858H20.5858Z" fill="#FAFAFA"/>
</g>
<defs>
<linearGradient id="paint0_linear_0_1" x1="14.0833" y1="-11.875" x2="25.3798" y2="37.4309" gradientUnits="userSpaceOnUse">
<stop stop-color="#832FBD"/>
<stop offset="1" stop-color="#D06852"/>
</linearGradient>
<clipPath id="clip0_0_1">
<rect width="40" height="40" rx="20" fill="white"/>
</clipPath>
<clipPath id="clip1_0_1">
<rect width="20" height="20" fill="white" transform="translate(10 10)"/>
</clipPath>
</defs>
</svg>
