<svg width="40" height="40" viewBox="0 0 40 40" fill="none" xmlns="http://www.w3.org/2000/svg">
<g clip-path="url(#clip0_511_2301)">
<path d="M0 0H40V40H0V0Z" fill="url(#paint0_linear_511_2301)"/>
<g clip-path="url(#clip1_511_2301)">
<path fill-rule="evenodd" clip-rule="evenodd" d="M29.7639 29.586H10.2354C10.106 29.586 10.001 29.4809 10.001 29.3516C10.001 27.8357 11.3768 26.688 12.8682 26.9566C13.4699 25.3428 15.5243 24.8463 16.7979 26.0181C17.5227 23.6151 21.03 23.7922 21.5148 26.2617C22.5179 25.4794 23.966 25.5996 24.8223 26.5569C25.7465 26.2726 26.7536 26.5601 27.3865 27.3013C29.4721 27.1216 30.4768 29.586 29.7639 29.586Z" fill="#FAFAFA"/>
<path fill-rule="evenodd" clip-rule="evenodd" d="M21.1902 13.8878C20.7735 13.8878 21.1541 13.3196 20.5678 12.9009C20.4551 12.8204 20.4362 12.6596 20.5283 12.5552C21.7107 11.2144 23.0893 10.6945 23.1705 10.6824C26.8579 10.1331 28.7069 12.9608 28.7069 13.2567C28.7069 13.3876 28.602 13.4921 28.4656 13.491L26.9481 13.4658C26.7895 13.4631 26.5277 13.1426 26.3454 12.9635C26.3207 13.2692 26.3585 13.5895 26.1002 13.6157L24.6141 13.7669C24.2004 13.8086 24.5917 13.1733 23.2834 12.8145C23.4912 13.1039 23.758 13.3645 23.6702 13.556C23.6349 13.6326 23.5613 13.6844 23.4774 13.6915L21.1903 13.8878H21.1902Z" fill="#FAFAFA"/>
<path fill-rule="evenodd" clip-rule="evenodd" d="M27.0145 20.6823C26.931 20.6823 26.8533 20.6373 26.8114 20.565L26.0038 19.1662C25.9236 19.0276 26.0721 18.6048 26.1328 18.3506C25.4707 18.8423 25.7502 18.8854 24.4307 17.5658C24.2032 17.3383 24.7331 16.5302 24.2466 15.7782C24.1173 16.1176 23.9972 16.5339 24.0231 16.7743C24.0758 17.0265 23.8491 17.1278 23.6986 17.0589C21.8463 16.2102 20.8693 14.5767 20.8166 14.5372C20.5383 14.3286 20.9408 14.1435 20.9546 13.6809C20.9585 13.5475 21.0746 13.4436 21.2075 13.4541C22.8555 13.5848 25.8339 14.1404 27.2623 16.3932C27.319 16.4817 28.2486 19.0702 27.2063 20.5817C27.163 20.6451 27.0908 20.6824 27.0144 20.6824L27.0145 20.6823Z" fill="#FAFAFA"/>
<path fill-rule="evenodd" clip-rule="evenodd" d="M18.873 13.8879L16.5663 13.4939C16.3962 13.4647 16.3152 13.2664 16.4157 13.1263L16.7798 12.6192C15.4713 12.9785 15.863 13.6127 15.4492 13.5715L13.9632 13.4204C13.7056 13.3942 13.7451 13.0844 13.7263 12.8016C13.5861 13.0294 13.4958 13.2677 13.31 13.2704L11.5973 13.2956C11.419 13.2988 11.3031 13.1068 11.3876 12.9499C11.7944 12.1945 13.5612 9.98506 16.8928 10.487C16.9935 10.5022 18.3579 11.2173 19.5348 12.5549C19.8238 12.8834 19.1073 12.9453 19.1073 13.6532C19.1073 13.7828 19.0018 13.8878 18.8732 13.8878L18.873 13.8879Z" fill="#FAFAFA"/>
<path fill-rule="evenodd" clip-rule="evenodd" d="M13.0485 20.6822C12.972 20.6822 12.9 20.6449 12.8562 20.5818C11.8153 19.0868 12.7404 16.4876 12.8002 16.3932C14.2287 14.1404 17.2069 13.5848 18.8551 13.4541C19.2115 13.427 19.018 13.8433 19.293 14.2087C19.4341 14.3962 19.2434 14.5312 19.2197 14.557C18.2076 16.1981 16.4395 17.0243 16.3642 17.059C16.1932 17.1376 16.0031 16.9909 16.0354 16.8055C16.0764 16.5709 15.9513 16.1322 15.8165 15.7781C15.3299 16.5297 15.8597 17.3382 15.6322 17.5657C14.3128 18.8851 14.5923 18.8423 13.9298 18.3504C13.9907 18.6047 14.139 19.0271 14.0589 19.166L13.2512 20.5648C13.2093 20.6373 13.1319 20.6819 13.0484 20.6819L13.0485 20.6822Z" fill="#FAFAFA"/>
<path fill-rule="evenodd" clip-rule="evenodd" d="M20.4391 25.2003C20.2203 25.2003 19.8323 24.6526 18.8683 24.7827C18.7349 24.8008 18.6133 24.701 18.6044 24.5659C18.3926 21.3382 18.5261 17.9387 19.0009 14.4619C19.0267 14.2726 19.2569 14.1928 19.3946 14.3237C19.6978 14.6118 20.1564 14.6599 20.5101 14.4444C20.6761 14.3433 20.8871 14.479 20.8646 14.6719C20.5153 17.6529 20.4529 21.0158 20.673 24.9529C20.6805 25.088 20.5719 25.2003 20.4389 25.2003H20.4391Z" fill="#FAFAFA"/>
<path fill-rule="evenodd" clip-rule="evenodd" d="M20.0316 15.0464C19.2635 15.0464 18.6387 14.4214 18.6387 13.6534C18.6387 12.8852 19.2634 12.2605 20.0316 12.2605C20.7997 12.2605 21.4248 12.8852 21.4248 13.6534C21.4248 14.4216 20.7997 15.0464 20.0316 15.0464Z" fill="#FAFAFA"/>
</g>
</g>
<defs>
<linearGradient id="paint0_linear_511_2301" x1="14.0833" y1="-11.875" x2="25.3798" y2="37.4309" gradientUnits="userSpaceOnUse">
<stop stop-color="#832FBD"/>
<stop offset="1" stop-color="#D06852"/>
</linearGradient>
<clipPath id="clip0_511_2301">
<rect width="40" height="40" rx="20" fill="white"/>
</clipPath>
<clipPath id="clip1_511_2301">
<rect width="20" height="20" fill="white" transform="translate(10 10)"/>
</clipPath>
</defs>
</svg>
