<svg width="40" height="40" viewBox="0 0 40 40" fill="none" xmlns="http://www.w3.org/2000/svg">
<g clip-path="url(#clip0_511_2292)">
<path d="M0 0H40V40H0V0Z" fill="url(#paint0_linear_511_2292)"/>
<g clip-path="url(#clip1_511_2292)">
<path d="M21.2522 12.9867C21.2564 12.9634 21.2664 12.9417 21.2664 12.9167C21.2664 12.8092 21.2264 12.7117 21.1597 12.6384L20.4164 11.1517V10.4167C20.4164 10.1867 20.2297 10 19.9997 10C19.7697 10 19.583 10.1867 19.583 10.4167V11.1517L18.7938 12.7309C18.7921 12.7342 18.793 12.7384 18.7913 12.7417C18.7663 12.795 18.7496 12.8542 18.7496 12.9175C18.7496 14.2692 18.6521 15.51 18.4863 16.6675H21.5121C21.3505 15.53 21.2555 14.3108 21.2522 12.9867Z" fill="#FAFAFA"/>
<path d="M27.4212 29.3401L26.9379 28.6726C26.1354 27.5668 25.2754 26.3634 24.4679 25.0001H24.9996C25.2296 25.0001 25.4163 24.8134 25.4163 24.5834C25.4163 24.3534 25.2296 24.1667 24.9996 24.1667H15.4162C15.1862 24.1667 14.9996 24.3534 14.9996 24.5834C14.9996 24.8134 15.1862 25.0001 15.4162 25.0001H15.5304C14.7237 26.3643 13.8629 27.5668 13.0604 28.6726L12.5771 29.3401C12.4862 29.4668 12.4737 29.6351 12.5446 29.7743C12.6154 29.9135 12.7596 30.0001 12.9162 30.0001H16.2721C16.3904 30.0001 16.5029 29.9493 16.5829 29.8618C16.6621 29.7735 16.6996 29.656 16.6871 29.5376C16.6729 29.4159 16.6662 29.2918 16.6662 29.1668C16.6662 27.3285 18.1612 25.8335 19.9996 25.8335C21.8379 25.8335 23.3329 27.3285 23.3329 29.1668C23.3329 29.2918 23.3262 29.416 23.3129 29.5376C23.2996 29.6559 23.3379 29.7726 23.4171 29.8618C23.4962 29.9493 23.6087 30.0001 23.7279 30.0001H27.0837C27.2404 30.0001 27.3829 29.9134 27.4545 29.7743C27.5262 29.6351 27.5129 29.4668 27.4212 29.3401Z" fill="#FAFAFA"/>
<path d="M18.4493 23.3333L19.1876 21.1183C19.2443 20.9483 19.4034 20.8333 19.5826 20.8333H20.4159C20.5951 20.8333 20.7543 20.9483 20.8109 21.1183L21.5493 23.3333H23.5534C22.8418 21.8875 22.2426 20.2325 21.8276 18.3333H22.0818C22.3118 18.3333 22.4985 18.1466 22.4985 17.9166C22.4985 17.6866 22.3118 17.5 22.0818 17.5H17.916C17.686 17.5 17.4993 17.6867 17.4993 17.9167C17.4993 18.1467 17.686 18.3334 17.916 18.3334H18.1702C17.756 20.2325 17.156 21.8875 16.4443 23.3334H18.4493V23.3333Z" fill="#FAFAFA"/>
</g>
</g>
<defs>
<linearGradient id="paint0_linear_511_2292" x1="14.0833" y1="-11.875" x2="25.3798" y2="37.4309" gradientUnits="userSpaceOnUse">
<stop stop-color="#832FBD"/>
<stop offset="1" stop-color="#D06852"/>
</linearGradient>
<clipPath id="clip0_511_2292">
<rect width="40" height="40" rx="20" fill="white"/>
</clipPath>
<clipPath id="clip1_511_2292">
<rect width="20" height="20" fill="white" transform="translate(10 10)"/>
</clipPath>
</defs>
</svg>
