<svg width="40" height="40" viewBox="0 0 40 40" fill="none" xmlns="http://www.w3.org/2000/svg">
<g clip-path="url(#clip0_0_1)">
<path d="M0 0H40V40H0V0Z" fill="url(#paint0_linear_0_1)"/>
</g>
<g clip-path="url(#clip1_0_1)">
<path d="M17.1875 15.3125H17.8125V17.8125H17.1875V15.3125Z" fill="#FAFAFA"/>
<path d="M19.6875 16.875V17.8125H20.3125V16.875C20.3125 16.7921 20.2796 16.7126 20.221 16.654C20.1624 16.5954 20.0829 16.5625 20 16.5625C19.9171 16.5625 19.8376 16.5954 19.779 16.654C19.7204 16.7126 19.6875 16.7921 19.6875 16.875Z" fill="#FAFAFA"/>
<path d="M17.7597 19.6875H14.6875V21.5625H17.4669L17.7597 19.6875Z" fill="#FAFAFA"/>
<path d="M21.875 19.0625H23.4375V18.4375H16.5625V19.0625H18.125H21.875Z" fill="#FAFAFA"/>
<path d="M19.0625 16.875C19.0625 16.6264 19.1613 16.3879 19.3371 16.2121C19.5129 16.0363 19.7514 15.9375 20 15.9375C20.2486 15.9375 20.4871 16.0363 20.6629 16.2121C20.8387 16.3879 20.9375 16.6264 20.9375 16.875V17.8125H21.5625V13.4375H18.4375V17.8125H19.0625V16.875Z" fill="#FAFAFA"/>
<path d="M26.5624 24.0625V22.1875H22.6309L22.9237 24.0625H26.5624Z" fill="#FAFAFA"/>
<path d="M22.2402 19.6875L22.533 21.5625H25.3124V19.6875H22.2402Z" fill="#FAFAFA"/>
<path d="M22.1875 15.3125H22.8125V17.8125H22.1875V15.3125Z" fill="#FAFAFA"/>
<path d="M13.4375 24.0625H17.0762L17.3691 22.1875H13.4375V24.0625Z" fill="#FAFAFA"/>
<path d="M20.9902 19.6875L22.4549 29.0625H23.0724L21.6077 19.6875H20.9902Z" fill="#FAFAFA"/>
<path d="M19.6424 19.6875L18.1777 29.0625H21.8221L20.3574 19.6875H19.6424Z" fill="#FAFAFA"/>
<path d="M23.4121 27.1875L23.7049 29.0625H29.0624V27.1875H23.4121Z" fill="#FAFAFA"/>
<path d="M27.8124 24.6875H23.0215L23.3143 26.5625H27.8124V24.6875Z" fill="#FAFAFA"/>
<path d="M10.9375 29.0625H16.295L16.5878 27.1875H10.9375V29.0625Z" fill="#FAFAFA"/>
<path d="M12.1875 24.6875V26.5625H16.6856L16.9784 24.6875H12.1875Z" fill="#FAFAFA"/>
<path d="M18.3924 19.6875L16.9277 29.0625H17.5452L19.0099 19.6875H18.3924Z" fill="#FAFAFA"/>
<path d="M25.625 12.8125H27.5C27.6658 12.8125 27.8247 12.7467 27.9419 12.6294C28.0592 12.5122 28.125 12.3533 28.125 12.1875C28.125 12.0217 28.0592 11.8628 27.9419 11.7456C27.8247 11.6283 27.6658 11.5625 27.5 11.5625C27.5 11.3139 27.4012 11.0754 27.2254 10.8996C27.0496 10.7238 26.8111 10.625 26.5625 10.625C26.3139 10.625 26.0754 10.7238 25.8996 10.8996C25.7238 11.0754 25.625 11.3139 25.625 11.5625C25.4592 11.5625 25.3003 11.6283 25.1831 11.7456C25.0658 11.8628 25 12.0217 25 12.1875C25 12.3533 25.0658 12.5122 25.1831 12.6294C25.3003 12.7467 25.4592 12.8125 25.625 12.8125Z" fill="#FAFAFA"/>
<path d="M12.5 13.75H14.375C14.5408 13.75 14.6997 13.6842 14.8169 13.5669C14.9342 13.4497 15 13.2908 15 13.125C15 12.9592 14.9342 12.8003 14.8169 12.6831C14.6997 12.5658 14.5408 12.5 14.375 12.5C14.375 12.2514 14.2762 12.0129 14.1004 11.8371C13.9246 11.6613 13.6861 11.5625 13.4375 11.5625C13.1889 11.5625 12.9504 11.6613 12.7746 11.8371C12.5988 12.0129 12.5 12.2514 12.5 12.5C12.3342 12.5 12.1753 12.5658 12.0581 12.6831C11.9408 12.8003 11.875 12.9592 11.875 13.125C11.875 13.2908 11.9408 13.4497 12.0581 13.5669C12.1753 13.6842 12.3342 13.75 12.5 13.75Z" fill="#FAFAFA"/>
</g>
<defs>
<linearGradient id="paint0_linear_0_1" x1="14.0833" y1="-11.875" x2="25.3798" y2="37.4309" gradientUnits="userSpaceOnUse">
<stop stop-color="#832FBD"/>
<stop offset="1" stop-color="#D06852"/>
</linearGradient>
<clipPath id="clip0_0_1">
<rect width="40" height="40" rx="20" fill="white"/>
</clipPath>
<clipPath id="clip1_0_1">
<rect width="20" height="20" fill="white" transform="translate(10 10)"/>
</clipPath>
</defs>
</svg>
