<svg width="40" height="40" viewBox="0 0 40 40" fill="none" xmlns="http://www.w3.org/2000/svg">
<g clip-path="url(#clip0_0_1)">
<path d="M0 0H40V40H0V0Z" fill="url(#paint0_linear_0_1)"/>
</g>
<g clip-path="url(#clip1_0_1)">
<path opacity="0.999" fill-rule="evenodd" clip-rule="evenodd" d="M26.3902 13.9885C26.4562 13.9885 26.5222 13.9885 26.5882 13.9885C26.6461 14.0592 26.6901 14.139 26.7202 14.2281C26.8622 14.3504 27.0162 14.3808 27.1821 14.3193C27.3264 14.2385 27.4657 14.1472 27.6 14.0456C27.689 14.0382 27.7514 14.08 27.787 14.171C27.788 14.2641 27.7807 14.3554 27.765 14.4448C27.9238 14.5258 28.0264 14.6551 28.073 14.8326C28.111 14.8809 28.1587 14.9151 28.2159 14.9353C28.4561 14.9496 28.6394 15.0637 28.7659 15.2775C28.8997 15.3339 29.0391 15.3492 29.1838 15.3231C29.3261 15.3073 29.4654 15.2769 29.6017 15.2319C29.6363 15.1902 29.6547 15.1408 29.6567 15.0836C29.6825 15.057 29.708 15.0304 29.7337 15.0037C29.8081 14.9934 29.8813 14.9782 29.9537 14.9581C30.0428 14.8733 30.138 14.7973 30.2396 14.73C30.3276 14.7224 30.4156 14.7148 30.5036 14.7072C30.6136 14.6503 30.731 14.6351 30.8555 14.6615C31.0786 14.8099 31.3205 14.9012 31.5814 14.9353C31.6336 14.9818 31.6776 15.035 31.7134 15.095C31.819 15.1356 31.907 15.204 31.9774 15.3003C32.1153 15.2815 32.229 15.3233 32.3183 15.4258C32.3278 15.5565 32.3462 15.6857 32.3733 15.8136C32.321 15.9036 32.2954 16.0025 32.2963 16.1102C32.1989 16.2209 32.1366 16.3502 32.1093 16.498C32.1173 16.5569 32.132 16.6139 32.1533 16.6691C32.0948 16.8111 32.0986 16.9518 32.1643 17.0912C32.1753 17.1745 32.1791 17.2581 32.1753 17.3421C32.332 17.3588 32.4494 17.4387 32.5273 17.5817C32.5143 17.6453 32.4886 17.7024 32.4503 17.7528C32.3623 17.844 32.2743 17.9353 32.1863 18.0265C32.1716 18.057 32.1716 18.0874 32.1863 18.1178C32.3102 18.2234 32.4092 18.3489 32.4833 18.4942C32.742 18.5725 32.8777 18.7512 32.8902 19.0304C32.9204 19.0655 32.9534 19.0959 32.9892 19.1216C32.9892 19.1976 32.9892 19.2737 32.9892 19.3497C32.8572 19.4021 32.718 19.4591 32.5713 19.5208C32.4835 19.6114 32.4543 19.7179 32.4833 19.8402C32.454 19.8706 32.4246 19.9011 32.3953 19.9315C32.3152 19.9372 32.2382 19.941 32.1643 19.9429C32.1276 19.9277 32.0911 19.9125 32.0544 19.8973C31.7083 19.8699 31.3599 19.8205 31.0095 19.749C30.8124 19.6871 30.7134 19.5464 30.7126 19.3269C30.6567 19.2227 30.5724 19.1885 30.4596 19.2243C30.3527 19.2612 30.25 19.3068 30.1516 19.3611C29.788 19.3741 29.4726 19.2524 29.2058 18.9961C29.0131 18.9513 28.848 18.8563 28.7109 18.711C28.6111 18.4659 28.4937 18.2302 28.3589 18.0037C28.2907 17.9751 28.2247 17.9827 28.161 18.0265C28.1243 18.0113 28.0876 17.9961 28.051 17.9809C27.979 18.0196 27.902 18.0463 27.82 18.0608C27.7704 18.075 27.7338 18.1054 27.71 18.152C27.8093 18.3854 27.9083 18.6173 28.007 18.8478C28.139 18.9847 28.2709 19.1216 28.4029 19.2585C28.4371 19.3102 28.4554 19.3673 28.4579 19.4296C28.408 19.5791 28.4409 19.7046 28.5569 19.806C28.5867 19.6947 28.6417 19.5996 28.7219 19.5208C28.7932 19.4984 28.8518 19.5174 28.8978 19.5779C28.9348 19.6735 28.9494 19.7685 28.9418 19.8631C28.922 19.9285 28.9 19.9932 28.8758 20.057C28.9061 20.1379 28.9501 20.2101 29.0078 20.2737C29.083 20.2579 29.1563 20.2275 29.2278 20.1824C29.4838 20.2231 29.7258 20.1775 29.9537 20.0456C30.0408 19.9221 30.125 19.7966 30.2066 19.6691C30.2588 19.6112 30.3138 19.558 30.3716 19.5094C30.4009 19.5094 30.4156 19.4942 30.4156 19.4638C30.4398 19.4387 30.4693 19.4235 30.5036 19.4182C30.5109 19.441 30.5256 19.4562 30.5476 19.4638C30.6063 19.6075 30.6393 19.7596 30.6466 19.9201C30.6767 20.0055 30.7134 20.0892 30.7566 20.171C30.8551 20.2642 30.9651 20.3174 31.0865 20.3307C31.1718 20.3519 31.2561 20.3785 31.3395 20.4106C31.4154 20.4958 31.4778 20.5908 31.5264 20.6957C31.5625 20.7484 31.61 20.7827 31.6694 20.7984C31.7123 20.8312 31.7416 20.8731 31.7574 20.9239C31.649 21.1089 31.5352 21.2914 31.4165 21.4714C31.3221 21.5774 31.2121 21.661 31.0865 21.7224C31.0473 21.8715 31.0254 22.0236 31.0205 22.1786C31.0023 22.1976 30.9838 22.2167 30.9655 22.2357C30.8881 22.2447 30.8148 22.2675 30.7456 22.3041C30.7013 22.4189 30.6354 22.5177 30.5476 22.6007C30.4449 22.6083 30.3424 22.6159 30.2396 22.6235C30.184 22.6822 30.1585 22.7545 30.1626 22.8402C30.1297 22.8745 30.0967 22.9087 30.0637 22.9429C29.9242 22.9566 29.785 22.9718 29.6457 22.9885C29.4803 23.0406 29.3191 23.1015 29.1618 23.171C29.1064 23.335 29.0036 23.4567 28.8538 23.5361C28.6489 23.5989 28.4363 23.6597 28.2159 23.7186C28.0936 23.7846 27.9836 23.8682 27.886 23.9695C27.673 23.9428 27.4897 24.0037 27.3361 24.152C27.2848 24.1748 27.2334 24.1977 27.1821 24.2205C27.0781 24.2267 26.9754 24.2419 26.8741 24.2661C26.7417 24.3278 26.6098 24.3886 26.4782 24.4486C26.3546 24.4782 26.23 24.4858 26.1043 24.4714C26.0575 24.4458 26.0172 24.4116 25.9833 24.3688C25.9735 24.2414 25.9515 24.1121 25.9173 23.9809C25.8616 23.8804 25.8176 23.774 25.7853 23.6615C25.7688 23.4709 25.7541 23.2808 25.7413 23.0912C25.6329 22.9576 25.5596 22.8055 25.5214 22.6349C25.3374 22.421 25.1981 22.1776 25.1034 21.9049C24.9411 21.7711 24.7872 21.6266 24.6415 21.4714C24.5877 21.3802 24.551 21.2814 24.5315 21.1748C24.528 21.0137 24.5133 20.854 24.4875 20.6957C24.3941 20.616 24.3282 20.5171 24.2895 20.3992C24.1463 20.2982 24.0216 20.1765 23.9156 20.0342C23.8827 19.871 23.8241 19.7189 23.7396 19.5779C23.5292 19.2531 23.3019 18.9414 23.0577 18.6425C23.0276 18.7196 22.9799 18.7843 22.9148 18.8364C22.8928 18.8517 22.8708 18.8517 22.8488 18.8364C22.748 18.7472 22.6636 18.6445 22.5958 18.5284C22.5141 18.3658 22.4408 18.1985 22.3758 18.0265C22.3766 18.2405 22.4426 18.4306 22.5738 18.5969C22.6981 18.6951 22.7641 18.8244 22.7718 18.9847C22.8866 19.2457 23.0186 19.4966 23.1677 19.7376C23.2311 19.8539 23.2825 19.9756 23.3217 20.1026C23.4409 20.2282 23.4739 20.3764 23.4207 20.5475C23.4717 20.6916 23.567 20.7905 23.7066 20.844C23.7774 20.9251 23.8398 21.0125 23.8936 21.1064C23.946 21.4488 23.9973 21.791 24.0476 22.133C24.1425 22.239 24.2451 22.3378 24.3555 22.4296C24.3665 22.4524 24.3775 22.4752 24.3885 22.498C24.2542 22.6791 24.0893 22.8235 23.8936 22.9315C23.9029 23.1004 23.8516 23.2449 23.7396 23.365C23.7172 23.4244 23.6988 23.4852 23.6846 23.5475C23.7204 23.6822 23.7314 23.819 23.7176 23.9581C23.6613 24.075 23.6173 24.1967 23.5857 24.3231C23.5754 24.3558 23.5571 24.3824 23.5307 24.403C23.4653 24.4204 23.4103 24.4546 23.3657 24.5056C23.284 24.613 23.2217 24.7309 23.1787 24.8592C23.1988 24.9255 23.1841 24.9864 23.1347 25.0418C23.0834 25.076 23.0321 25.1102 22.9807 25.1444C23.0032 25.1885 23.0069 25.2341 22.9917 25.2813C22.9529 25.3391 22.9199 25.3999 22.8928 25.4638C22.8708 25.479 22.8488 25.4942 22.8268 25.5094C22.8121 25.5094 22.8048 25.5018 22.8048 25.4866C22.7975 25.4638 22.7828 25.4486 22.7608 25.441C22.5425 25.2889 22.4765 25.0797 22.5628 24.8136C22.5445 24.8098 22.5261 24.806 22.5078 24.8022C22.4776 24.8064 22.4592 24.8216 22.4528 24.8478C22.4308 24.8554 22.4162 24.8707 22.4088 24.8935C22.3804 24.8875 22.3511 24.8989 22.3209 24.9277C22.3355 25.0113 22.3502 25.095 22.3648 25.1786C22.3155 25.2565 22.2495 25.3135 22.1669 25.3497C22.1136 25.4374 22.0549 25.5211 21.9909 25.6007C21.9115 25.6256 21.8309 25.6294 21.7489 25.6121C21.6781 25.5462 21.6011 25.4892 21.518 25.441C21.4813 25.4638 21.4447 25.4866 21.408 25.5094C21.3972 25.5389 21.3935 25.5694 21.397 25.6007C21.375 25.6083 21.3603 25.6235 21.353 25.6463C21.2701 25.6332 21.2041 25.6598 21.155 25.7262C21.1074 25.73 21.0597 25.7338 21.0121 25.7376C20.9061 25.7167 20.7997 25.6939 20.6931 25.6691C20.5936 25.672 20.4983 25.6834 20.4071 25.7034C20.3741 25.6901 20.3448 25.6711 20.3192 25.6463C20.2574 25.5714 20.2134 25.4877 20.1872 25.3954C20.1052 25.388 20.0246 25.3956 19.9452 25.4182C19.931 25.4463 19.9274 25.4767 19.9342 25.5094C19.8997 25.5349 19.8704 25.5653 19.8462 25.6007C19.8113 25.6958 19.7856 25.7946 19.7692 25.8973C19.7316 25.9289 19.695 25.9593 19.6593 25.9885C19.6373 25.9885 19.6153 25.9885 19.5933 25.9885C19.5041 25.9015 19.3978 25.8331 19.2743 25.7832C19.2651 25.7197 19.2908 25.6741 19.3513 25.6463C19.3765 25.5946 19.3802 25.5414 19.3623 25.4866C19.2842 25.3296 19.1889 25.1851 19.0764 25.0532C19.0708 24.9916 19.0708 24.9307 19.0764 24.8707C19.0165 24.8314 18.9725 24.7782 18.9444 24.711C18.9334 24.6124 18.9297 24.5135 18.9334 24.4144C18.8014 24.4257 18.7537 24.3649 18.7904 24.2319C18.8173 24.2028 18.8356 24.1686 18.8454 24.1292C18.8239 24.0737 18.8092 24.0167 18.8014 23.9581C18.8234 23.9505 18.8381 23.9353 18.8454 23.9125C18.8788 23.9122 18.9044 23.897 18.9224 23.8669C18.9157 23.7283 18.9743 23.6371 19.0983 23.5931C19.1042 23.3816 19.2105 23.2638 19.4173 23.2395C19.4325 23.2151 19.4435 23.1885 19.4503 23.1596C19.465 22.7566 19.465 22.3536 19.4503 21.9505C18.6027 21.4634 17.7485 20.9843 16.8877 20.5132C16.6915 20.6105 16.5009 20.717 16.3158 20.8326C16.1237 20.5703 15.8743 20.4677 15.5679 20.5246C15.1163 20.8234 14.6617 21.1162 14.2041 21.403C13.9831 21.5708 13.7704 21.7496 13.5662 21.9391C13.2761 22.066 12.9754 22.1535 12.6643 22.2015C12.657 22.1786 12.6423 22.1634 12.6203 22.1558C12.6153 22.0351 12.5713 21.9324 12.4884 21.8478C12.3699 21.7854 12.2453 21.7435 12.1144 21.7224C12.1071 21.6996 12.0924 21.6843 12.0704 21.6767C12.011 21.5655 11.9377 21.4628 11.8505 21.3688C10.6665 20.5359 9.48605 19.7184 8.30901 18.9163C7.9113 18.9202 7.5007 18.9202 7.0772 18.9163C7.05407 18.8998 7.03941 18.877 7.0332 18.8478C7.16348 18.77 7.30279 18.7092 7.45114 18.6653C7.64196 18.494 7.82893 18.3191 8.01205 18.1406C8.06776 18.0641 8.10809 17.9805 8.13303 17.8897C8.10135 17.7873 8.07203 17.6847 8.04505 17.5817C8.04283 17.4513 8.08682 17.341 8.17703 17.2509C8.26881 17.0493 8.3788 16.8591 8.50698 16.6805C8.62398 16.6474 8.74129 16.6131 8.85892 16.5779C8.9435 16.5455 9.01682 16.496 9.07889 16.4296C9.18981 16.2299 9.2888 16.0246 9.37584 15.8136C9.42428 15.6944 9.50859 15.6449 9.6288 15.6653C9.73192 15.742 9.83458 15.8181 9.93676 15.8935C10.1128 15.8958 10.2888 15.8958 10.4647 15.8935C10.592 15.9503 10.724 15.9731 10.8606 15.9619C11.0292 15.7615 11.2419 15.6475 11.4985 15.6197C11.6207 15.5007 11.76 15.4094 11.9165 15.3459C12.2787 15.3033 12.6417 15.2691 13.0053 15.2433C13.1186 15.239 13.2286 15.2542 13.3352 15.2889C13.5461 15.1962 13.7661 15.143 13.9951 15.1292C14.1275 15.1483 14.2595 15.1711 14.3911 15.1977C14.5286 15.1359 14.6716 15.0903 14.82 15.0608C14.8807 15.0617 14.9393 15.0731 14.996 15.095C15.0381 15.1547 15.0821 15.2117 15.128 15.2661C15.2048 15.1762 15.2708 15.18 15.3259 15.2775C15.2628 15.3696 15.2042 15.4646 15.15 15.5627C15.226 15.6462 15.281 15.745 15.3149 15.8592C15.3306 15.9979 15.2829 16.1082 15.172 16.19C15.0931 16.2366 15.0161 16.286 14.941 16.3383C14.9376 16.4499 14.9926 16.5108 15.106 16.5208C15.2543 16.4488 15.3386 16.5021 15.3589 16.6805C15.4239 16.7495 15.5009 16.799 15.5899 16.8288C15.7659 16.8364 15.9418 16.844 16.1178 16.8516C16.2695 16.9113 16.4235 16.9645 16.5797 17.0113C16.6924 17.06 16.7401 17.1474 16.7227 17.2737C16.7758 17.3603 16.8528 17.4097 16.9537 17.422C17.096 17.4257 17.2353 17.4485 17.3716 17.4904C17.5299 17.5762 17.6839 17.6675 17.8335 17.7642C17.9499 17.7929 18.0525 17.7663 18.1415 17.6843C18.1655 17.6459 18.1802 17.6041 18.1855 17.5589C18.1583 17.4552 18.1289 17.3525 18.0975 17.2509C18.1092 17.1586 18.1532 17.0864 18.2295 17.0342C18.4707 16.8341 18.742 16.7657 19.0434 16.8288C19.1324 16.9136 19.2277 16.9897 19.3293 17.057C19.4914 17.0832 19.6527 17.1136 19.8132 17.1482C19.8757 17.2131 19.9454 17.2473 20.0222 17.2509C20.2145 17.2915 20.4088 17.3258 20.6051 17.3535C20.8042 17.4275 21.0059 17.4921 21.21 17.5475C21.3187 17.531 21.4104 17.4816 21.485 17.3992C21.7785 17.2741 22.0608 17.2931 22.3318 17.4562C22.5138 17.4297 22.7008 17.4259 22.8928 17.4448C22.9381 17.4089 22.9528 17.3671 22.9368 17.3193C23.0364 17.142 23.1061 16.9519 23.1457 16.749C23.2499 16.5722 23.3452 16.3897 23.4317 16.2015C23.4358 16.0977 23.4541 15.995 23.4867 15.8935C23.456 15.8228 23.4413 15.7543 23.4427 15.6881C23.493 15.6206 23.5553 15.5711 23.6297 15.5399C23.6416 15.4124 23.6966 15.3097 23.7946 15.2319C23.8631 15.2443 23.9291 15.2709 23.9926 15.3117C24.1145 15.2789 24.2318 15.2333 24.3445 15.1748C24.3697 15.1895 24.3917 15.2086 24.4105 15.2319C24.6546 15.261 24.8893 15.2153 25.1144 15.095C25.2809 15.0894 25.4459 15.0704 25.6093 15.038C25.6541 15.0346 25.6908 15.0498 25.7193 15.0836C25.7633 15.038 25.8073 14.9923 25.8513 14.9467C25.9906 14.9662 26.1335 14.9928 26.2802 15.0265C26.3436 15.0575 26.4059 15.0917 26.4672 15.1292C26.4624 15.0131 26.4111 14.9218 26.3132 14.8554C26.3373 14.6638 26.3263 14.4736 26.2802 14.2851C26.3238 14.1892 26.3605 14.0903 26.3902 13.9885Z" fill="#FAFAFA"/>
<path fill-rule="evenodd" clip-rule="evenodd" d="M23.3108 17.2737C23.3953 17.2762 23.3953 17.2915 23.3108 17.3193C23.2896 17.3086 23.2896 17.2934 23.3108 17.2737Z" fill="#FAFAFA"/>
<path fill-rule="evenodd" clip-rule="evenodd" d="M27.2921 18.0951C27.3223 18.0915 27.3516 18.0953 27.3801 18.1065C27.3357 18.1167 27.2953 18.1357 27.2591 18.1635C27.2538 18.1341 27.2648 18.1113 27.2921 18.0951Z" fill="#FAFAFA"/>
<path opacity="0.352" fill-rule="evenodd" clip-rule="evenodd" d="M7.03325 18.8479C7.03946 18.8771 7.05412 18.8999 7.07724 18.9163C7.04792 18.9163 7.01859 18.9163 6.98926 18.9163C6.98926 18.9011 6.98926 18.8859 6.98926 18.8707C7.00392 18.8631 7.01859 18.8555 7.03325 18.8479Z" fill="#FAFAFA"/>
<path opacity="0.198" fill-rule="evenodd" clip-rule="evenodd" d="M30.5029 19.4182C30.5322 19.4182 30.5469 19.4334 30.5469 19.4638C30.5249 19.4562 30.5102 19.441 30.5029 19.4182Z" fill="#FAFAFA"/>
<path opacity="0.616" fill-rule="evenodd" clip-rule="evenodd" d="M30.4151 19.4639C30.4151 19.4943 30.4003 19.5095 30.3711 19.5095C30.3784 19.4867 30.3931 19.4715 30.4151 19.4639Z" fill="#FAFAFA"/>
<path opacity="0.902" fill-rule="evenodd" clip-rule="evenodd" d="M28.5018 19.5094C28.5089 19.4741 28.5309 19.4589 28.5678 19.4638C28.5647 19.504 28.572 19.542 28.5898 19.5779C28.5706 19.6297 28.5339 19.6525 28.4798 19.6463C28.4733 19.5953 28.4807 19.5497 28.5018 19.5094Z" fill="#FAFAFA"/>
<path fill-rule="evenodd" clip-rule="evenodd" d="M28.5022 19.5095C28.5274 19.5162 28.5421 19.5352 28.5462 19.5666C28.5388 19.5856 28.5315 19.6046 28.5242 19.6236C28.5032 19.5883 28.4959 19.5503 28.5022 19.5095Z" fill="#FAFAFA"/>
<path opacity="0.146" fill-rule="evenodd" clip-rule="evenodd" d="M12.0703 21.6768C12.0923 21.6844 12.107 21.6996 12.1143 21.7224C12.085 21.7224 12.0703 21.7072 12.0703 21.6768Z" fill="#FAFAFA"/>
<path opacity="0.08" fill-rule="evenodd" clip-rule="evenodd" d="M12.6201 22.156C12.6421 22.1636 12.6568 22.1788 12.6641 22.2016C12.6348 22.2016 12.6201 22.1864 12.6201 22.156Z" fill="#FAFAFA"/>
<path opacity="0.208" fill-rule="evenodd" clip-rule="evenodd" d="M18.8448 23.9126C18.8374 23.9354 18.8228 23.9506 18.8008 23.9582C18.8008 23.9278 18.8155 23.9126 18.8448 23.9126Z" fill="#FAFAFA"/>
<path fill-rule="evenodd" clip-rule="evenodd" d="M29.8217 24.4828C29.8289 24.498 29.8364 24.5132 29.8437 24.5284C29.8217 24.536 29.8069 24.5512 29.7997 24.574C29.7189 24.6415 29.631 24.6567 29.5357 24.6197C29.5183 24.5901 29.4963 24.5635 29.4697 24.5398C29.4891 24.5237 29.5038 24.5046 29.5137 24.4828C29.6164 24.4524 29.7189 24.4524 29.8217 24.4828Z" fill="#FAFAFA"/>
<path opacity="0.125" fill-rule="evenodd" clip-rule="evenodd" d="M29.8213 24.4829C29.8635 24.4877 29.871 24.5029 29.8433 24.5285C29.836 24.5133 29.8285 24.4981 29.8213 24.4829Z" fill="#FAFAFA"/>
<path opacity="0.222" fill-rule="evenodd" clip-rule="evenodd" d="M29.5133 24.4828C29.5034 24.5046 29.4886 24.5237 29.4693 24.5398C29.4959 24.5635 29.5179 24.5902 29.5353 24.6197C29.4891 24.6137 29.4598 24.5871 29.4473 24.5398C29.4528 24.4999 29.4748 24.4809 29.5133 24.4828Z" fill="#FAFAFA"/>
<path opacity="0.171" fill-rule="evenodd" clip-rule="evenodd" d="M29.8438 24.5286C29.8438 24.559 29.8291 24.5742 29.7998 24.5742C29.8071 24.5514 29.8218 24.5362 29.8438 24.5286Z" fill="#FAFAFA"/>
<path opacity="0.49" fill-rule="evenodd" clip-rule="evenodd" d="M22.4522 24.8479C22.4522 24.8783 22.4375 24.8935 22.4082 24.8935C22.4155 24.8707 22.4302 24.8555 22.4522 24.8479Z" fill="#FAFAFA"/>
<path opacity="0.132" fill-rule="evenodd" clip-rule="evenodd" d="M22.7607 25.4412C22.7827 25.4488 22.7974 25.464 22.8047 25.4868C22.7754 25.4868 22.7607 25.4716 22.7607 25.4412Z" fill="#FAFAFA"/>
<path opacity="0.643" fill-rule="evenodd" clip-rule="evenodd" d="M22.8922 25.4639C22.893 25.5483 22.871 25.5635 22.8262 25.5095C22.8482 25.4943 22.8702 25.4791 22.8922 25.4639Z" fill="#FAFAFA"/>
<path opacity="0.216" fill-rule="evenodd" clip-rule="evenodd" d="M21.3965 25.6008C21.3965 25.6312 21.3819 25.6465 21.3525 25.6465C21.3599 25.6236 21.3745 25.6084 21.3965 25.6008Z" fill="#FAFAFA"/>
</g>
<defs>
<linearGradient id="paint0_linear_0_1" x1="14.0833" y1="-11.875" x2="25.3798" y2="37.4309" gradientUnits="userSpaceOnUse">
<stop stop-color="#832FBD"/>
<stop offset="1" stop-color="#D06852"/>
</linearGradient>
<clipPath id="clip0_0_1">
<rect width="40" height="40" rx="20" fill="white"/>
</clipPath>
<clipPath id="clip1_0_1">
<rect width="26" height="12" fill="white" transform="translate(7 14)"/>
</clipPath>
</defs>
</svg>
