<svg width="40" height="40" viewBox="0 0 40 40" fill="none" xmlns="http://www.w3.org/2000/svg">
<g clip-path="url(#clip0_511_2274)">
<path d="M0 0H40V40H0V0Z" fill="url(#paint0_linear_511_2274)"/>
<g clip-path="url(#clip1_511_2274)">
<path d="M28.2812 29.6875C29.0579 29.6875 29.6875 29.0579 29.6875 28.2812C29.6875 27.5046 29.0579 26.875 28.2812 26.875C27.5046 26.875 26.875 27.5046 26.875 28.2812C26.875 29.0579 27.5046 29.6875 28.2812 29.6875Z" fill="#FAFAFA"/>
<path d="M21.251 16.5845C21.2573 17.1566 21.4874 17.7035 21.8919 18.108C22.2965 18.5126 22.8434 18.7427 23.4155 18.749C23.3459 18.1992 23.0954 17.6882 22.7036 17.2964C22.3117 16.9045 21.8007 16.6541 21.251 16.5845Z" fill="#FAFAFA"/>
<path d="M20.6235 16.5845C20.0738 16.6541 19.5627 16.9045 19.1709 17.2964C18.7791 17.6882 18.5286 18.1992 18.459 18.749C19.0311 18.7427 19.578 18.5126 19.9825 18.108C20.3871 17.7035 20.6172 17.1566 20.6235 16.5845Z" fill="#FAFAFA"/>
<path d="M23.4375 20.6249V19.3749C22.921 19.3745 22.4146 19.232 21.9737 18.9631C21.5327 18.6941 21.1743 18.3091 20.9375 17.8501C20.7007 18.3091 20.3423 18.6941 19.9013 18.9631C19.4604 19.232 18.954 19.3745 18.4375 19.3749V20.6249C18.4375 21.288 18.7009 21.9238 19.1697 22.3927C19.6386 22.8615 20.2745 23.1249 20.9375 23.1249C21.6005 23.1249 22.2364 22.8615 22.7053 22.3927C23.1741 21.9238 23.4375 21.288 23.4375 20.6249Z" fill="#FAFAFA"/>
<path d="M21.7476 14.1408L21.2404 12.1116C21.2235 12.0441 21.1845 11.984 21.1296 11.9412C21.0747 11.8983 21.007 11.875 20.9374 11.875C20.8677 11.875 20.8 11.8983 20.7451 11.9412C20.6902 11.984 20.6512 12.0441 20.6343 12.1116L20.127 14.1408C20.6621 14.0364 21.2124 14.0364 21.7476 14.1408Z" fill="#FAFAFA"/>
<path d="M24.5486 15.9724L25.6247 14.1789C25.6606 14.1192 25.6755 14.0491 25.667 13.9799C25.6585 13.9107 25.6271 13.8464 25.5778 13.7971C25.5285 13.7478 25.4641 13.7164 25.3949 13.7079C25.3257 13.6994 25.2557 13.7143 25.1959 13.7502L23.4023 14.8262C23.852 15.1341 24.2406 15.5228 24.5486 15.9724Z" fill="#FAFAFA"/>
<path d="M25.3127 18.4374C25.3118 18.7094 25.2856 18.9807 25.2344 19.2478L27.2633 18.7405C27.3309 18.7236 27.3909 18.6846 27.4337 18.6296C27.4766 18.5747 27.4999 18.5071 27.4999 18.4374C27.4999 18.3677 27.4766 18.3001 27.4337 18.2451C27.3909 18.1902 27.3309 18.1512 27.2633 18.1343L25.2345 17.627C25.2857 17.8941 25.3119 18.1654 25.3127 18.4374Z" fill="#FAFAFA"/>
<path d="M17.3258 15.9724C17.6338 15.5228 18.0224 15.1341 18.472 14.8262L16.6784 13.7502C16.6187 13.7143 16.5486 13.6994 16.4794 13.7079C16.4103 13.7164 16.3459 13.7478 16.2966 13.7971C16.2473 13.8464 16.2159 13.9107 16.2074 13.9799C16.1989 14.0491 16.2138 14.1192 16.2497 14.1789L17.3258 15.9724Z" fill="#FAFAFA"/>
<path d="M24.6875 18.4376C24.6882 17.8524 24.5519 17.2751 24.2896 16.752C24.0272 16.2289 23.6461 15.7744 23.1766 15.425C22.7072 15.0755 22.1624 14.8408 21.586 14.7396C21.0096 14.6384 20.4175 14.6735 19.8571 14.8421C19.2967 15.0107 18.7835 15.3081 18.3587 15.7106C17.9338 16.113 17.609 16.6094 17.4103 17.1598C17.2116 17.7103 17.1445 18.2996 17.2143 18.8806C17.2841 19.4617 17.489 20.0183 17.8125 20.506V19.0626C17.8125 18.2338 18.1417 17.4389 18.7278 16.8529C19.3138 16.2668 20.1087 15.9376 20.9375 15.9376C21.7663 15.9376 22.5612 16.2668 23.1472 16.8529C23.7333 17.4389 24.0625 18.2338 24.0625 19.0626V20.506C24.4705 19.8934 24.688 19.1736 24.6875 18.4376Z" fill="#FAFAFA"/>
<path d="M19.9561 23.5897L20.6873 24.8085L21.8986 23.5973C21.267 23.8034 20.586 23.8009 19.9561 23.5897Z" fill="#FAFAFA"/>
<path d="M23.4375 22.8125C24.1038 22.8123 24.7555 23.007 25.3125 23.3726V21.25C25.3124 20.8579 25.1887 20.4758 24.9588 20.1582C24.5846 21.0246 23.9417 21.7476 23.125 22.2206V22.5C23.1256 22.6048 23.135 22.7093 23.1531 22.8125H23.4375Z" fill="#FAFAFA"/>
<path d="M20.227 25.2564L19.1356 23.4374H18.5391L15.4447 21.187L12.9594 24.3824C12.9169 24.437 12.8937 24.5042 12.8936 24.5734C12.8934 24.6426 12.9162 24.7099 12.9584 24.7648L15.625 28.2312V29.5514L20.227 25.2564Z" fill="#FAFAFA"/>
<path d="M25.0624 25.2885C25.1215 25.1368 25.2189 25.003 25.3452 24.9001C25.4714 24.7972 25.6222 24.7288 25.7827 24.7014C25.5268 24.3132 25.1786 23.9946 24.7693 23.774C24.36 23.5534 23.9023 23.4378 23.4374 23.4375H22.9418L20.8458 25.5334L20.8382 25.5409L16.0605 30H19.8217L22.2168 24.8678C22.2341 24.8307 22.2586 24.7972 22.2889 24.7695C22.3192 24.7418 22.3546 24.7203 22.3932 24.7063C22.4317 24.6923 22.4727 24.686 22.5137 24.6878C22.5547 24.6896 22.5949 24.6995 22.6321 24.7168C22.6693 24.7342 22.7027 24.7587 22.7304 24.7889C22.7581 24.8192 22.7796 24.8546 22.7936 24.8932C22.8077 24.9318 22.814 24.9727 22.8122 25.0137C22.8104 25.0547 22.8005 25.095 22.7831 25.1322L20.5114 30H23.4929C23.4177 29.7898 23.4201 29.5597 23.4996 29.3512L23.8821 28.3568L23.4401 25.0413C23.4295 24.9594 23.4519 24.8766 23.5022 24.811C23.5525 24.7455 23.6268 24.7025 23.7087 24.6916C23.7906 24.6807 23.8735 24.7026 23.9393 24.7527C24.0051 24.8027 24.0483 24.8768 24.0596 24.9587L24.3504 27.1396L25.0624 25.2885Z" fill="#FAFAFA"/>
<path d="M26.25 28.2812C26.2497 27.9441 26.3333 27.6121 26.4935 27.3154C26.6536 27.0187 26.8852 26.7665 27.1673 26.5818C27.4493 26.397 27.773 26.2854 28.109 26.2571C28.445 26.2289 28.7827 26.2848 29.0917 26.4198L29.3542 25.7372C29.3723 25.6898 29.3787 25.6388 29.3728 25.5884C29.3668 25.5381 29.3487 25.4899 29.32 25.4481C29.2913 25.4063 29.2529 25.3722 29.208 25.3485C29.1631 25.3249 29.1132 25.3125 29.0625 25.3125H25.9375C25.8743 25.3125 25.8126 25.3316 25.7605 25.3674C25.7084 25.4032 25.6684 25.4539 25.6457 25.5128L24.0832 29.5753C24.0651 29.6227 24.0587 29.6737 24.0647 29.7241C24.0706 29.7744 24.0887 29.8226 24.1175 29.8644C24.1462 29.9062 24.1846 29.9404 24.2295 29.964C24.2744 29.9876 24.3243 30 24.375 30H27.2037C26.9122 29.8177 26.6718 29.5644 26.5049 29.2638C26.3381 28.9631 26.2504 28.6251 26.25 28.2812Z" fill="#FAFAFA"/>
<path d="M12.6562 16.25V15.625C12.6562 15.2935 12.5246 14.9755 12.2901 14.7411C12.0557 14.5067 11.7378 14.375 11.4062 14.375C11.0747 14.375 10.7568 14.5067 10.5224 14.7411C10.2879 14.9755 10.1562 15.2935 10.1562 15.625V16.25C10.1562 16.5815 10.2879 16.8995 10.5224 17.1339C10.7568 17.3683 11.0747 17.5 11.4062 17.5C11.7378 17.5 12.0557 17.3683 12.2901 17.1339C12.5246 16.8995 12.6562 16.5815 12.6562 16.25Z" fill="#FAFAFA"/>
<path d="M11.4062 13.75C11.6695 13.7501 11.9297 13.8059 12.1699 13.9136C12.4101 14.0213 12.6248 14.1785 12.8 14.375H14.375C14.4579 14.375 14.5374 14.3421 14.596 14.2835C14.6546 14.2249 14.6875 14.1454 14.6875 14.0625V13.4375C14.6875 13.3546 14.6546 13.2751 14.596 13.2165C14.5374 13.1579 14.4579 13.125 14.375 13.125H10.625C10.5421 13.125 10.4626 13.1579 10.404 13.2165C10.3454 13.2751 10.3125 13.3546 10.3125 13.4375V14.0625C10.3142 14.075 10.3167 14.0874 10.32 14.0996C10.6366 13.8723 11.0165 13.75 11.4062 13.75Z" fill="#FAFAFA"/>
<path d="M13.4348 19.7263L14.0256 15H13.1716C13.2435 15.2005 13.2805 15.4119 13.281 15.625V16.25C13.2804 16.7471 13.0827 17.2237 12.7312 17.5752C12.3797 17.9267 11.9031 18.1245 11.406 18.125C11.3919 18.125 11.3783 18.1232 11.3643 18.1229L11.5647 19.7263C11.5741 19.8018 11.6108 19.8714 11.6679 19.9218C11.725 19.9722 11.7986 20 11.8747 20H13.1247C13.2009 20 13.2744 19.9722 13.3315 19.9218C13.3886 19.8714 13.4253 19.8018 13.4348 19.7263Z" fill="#FAFAFA"/>
<path d="M13.3594 12.5C13.5269 12.3088 13.6253 12.0669 13.6387 11.8131C13.6521 11.5592 13.5798 11.3083 13.4334 11.1005L12.7563 10.1333C12.7275 10.0921 12.6892 10.0585 12.6446 10.0353C12.6001 10.0121 12.5506 10 12.5003 10C12.4501 10 12.4006 10.0121 12.356 10.0353C12.3114 10.0585 12.2731 10.0921 12.2443 10.1333L11.5673 11.1005C11.4208 11.3083 11.3485 11.5592 11.3619 11.8131C11.3754 12.0669 11.4737 12.3088 11.6413 12.5H13.3594Z" fill="#FAFAFA"/>
<path d="M15.1045 20.6066L14.2555 18.2012L14.0551 19.8037C14.0265 20.0303 13.9163 20.2387 13.7451 20.3899C13.5738 20.541 13.3534 20.6246 13.125 20.6249H12.0527L12.9138 23.4232L15.1045 20.6066Z" fill="#FAFAFA"/>
<path d="M16.6412 19.2478C16.5368 18.7126 16.5368 18.1622 16.6412 17.627L14.8721 18.0692L15.1571 18.8768L16.6412 19.2478Z" fill="#FAFAFA"/>
<path d="M16.5645 21.2284L18.6459 22.7421C18.3573 22.4303 18.1353 22.0629 17.9935 21.6624C17.5313 21.2436 17.164 20.7307 16.9164 20.1582C16.6914 20.4701 16.5685 20.8439 16.5645 21.2284Z" fill="#FAFAFA"/>
</g>
</g>
<defs>
<linearGradient id="paint0_linear_511_2274" x1="14.0833" y1="-11.875" x2="25.3798" y2="37.4309" gradientUnits="userSpaceOnUse">
<stop stop-color="#832FBD"/>
<stop offset="1" stop-color="#D06852"/>
</linearGradient>
<clipPath id="clip0_511_2274">
<rect width="40" height="40" rx="20" fill="white"/>
</clipPath>
<clipPath id="clip1_511_2274">
<rect width="20" height="20" fill="white" transform="translate(10 10)"/>
</clipPath>
</defs>
</svg>
