<svg width="22" height="13" viewBox="0 0 22 13" fill="none" xmlns="http://www.w3.org/2000/svg">
<path d="M16.0627 9.79414C15.8814 9.79414 15.7041 9.73916 15.5534 9.63615C15.4027 9.53313 15.2852 9.38671 15.2158 9.21541C15.1464 9.0441 15.1283 8.8556 15.1636 8.67375C15.199 8.49189 15.2863 8.32484 15.4145 8.19373C15.5427 8.06262 15.706 7.97333 15.8838 7.93716C16.0617 7.90098 16.246 7.91955 16.4135 7.99051C16.581 8.06146 16.7241 8.18162 16.8249 8.3358C16.9256 8.48997 16.9793 8.67122 16.9793 8.85664C16.9793 9.10528 16.8828 9.34374 16.7109 9.51956C16.5389 9.69537 16.3058 9.79414 16.0627 9.79414ZM5.93733 9.79414C5.75603 9.79414 5.5788 9.73916 5.42805 9.63615C5.27731 9.53313 5.15982 9.38671 5.09044 9.21541C5.02106 9.0441 5.0029 8.8556 5.03827 8.67375C5.07364 8.49189 5.16095 8.32484 5.28914 8.19373C5.41734 8.06262 5.58068 7.97333 5.75849 7.93716C5.93631 7.90098 6.12062 7.91955 6.28812 7.99051C6.45562 8.06146 6.59878 8.18162 6.69951 8.3358C6.80023 8.48997 6.85399 8.67122 6.85399 8.85664C6.85399 9.10528 6.75742 9.34374 6.58551 9.51956C6.4136 9.69537 6.18044 9.79414 5.93733 9.79414ZM16.3911 4.15039L18.2222 0.908205C18.2513 0.863803 18.2712 0.813756 18.2807 0.761165C18.2901 0.708573 18.2889 0.654557 18.2771 0.602462C18.2653 0.550368 18.2432 0.501303 18.2121 0.458308C18.181 0.415313 18.1417 0.379303 18.0964 0.352508C18.0512 0.325713 18.001 0.308705 17.9491 0.302535C17.8972 0.296366 17.8445 0.301168 17.7945 0.316643C17.7444 0.332118 17.698 0.357936 17.6581 0.3925C17.6183 0.427064 17.5857 0.469636 17.5626 0.51758L15.7086 3.80156C14.2277 3.12228 12.623 2.7711 11 2.7711C9.37697 2.7711 7.7723 3.12228 6.29139 3.80156L4.43743 0.51758C4.41428 0.469636 4.38175 0.427064 4.34186 0.3925C4.30196 0.357936 4.25556 0.332118 4.20551 0.316643C4.15546 0.301168 4.10284 0.296366 4.05091 0.302535C3.99897 0.308705 3.94883 0.325713 3.90358 0.352508C3.85834 0.379303 3.81895 0.415313 3.78787 0.458308C3.75678 0.501303 3.73466 0.550368 3.72287 0.602462C3.71108 0.654557 3.70987 0.708573 3.71932 0.761165C3.72877 0.813756 3.74868 0.863803 3.77781 0.908205L5.60885 4.15039C2.46469 5.89922 0.314722 9.1543 0 13H22C21.6853 9.1543 19.5349 5.89922 16.3911 4.15039Z" fill="#3B3B3B"/>
</svg>
