<svg width="199" height="50" viewBox="0 0 199 50" fill="none" xmlns="http://www.w3.org/2000/svg">
<g clip-path="url(#clip0_947_6282)">
<path opacity="0.979" fill-rule="evenodd" clip-rule="evenodd" d="M45.5992 -0.038147C46.1389 -0.038147 46.6785 -0.038147 47.2181 -0.038147C48.1538 0.152061 48.9375 0.610077 49.5693 1.3359C50.8426 3.10879 51.485 5.09353 51.4965 7.2901C51.56 11.8506 51.0718 16.3545 50.0318 20.8015C48.8076 26.4402 47.1887 31.9618 45.1753 37.3664C44.5541 38.8257 43.9116 40.2761 43.2481 41.7176C42.8342 41.9675 42.5002 41.8912 42.2459 41.4886C41.731 30.2622 38.8016 19.7025 33.4579 9.80918C33.397 9.56995 33.4227 9.34094 33.535 9.12216C35.4777 6.86763 37.5976 4.79384 39.8947 2.90078C41.1102 1.90252 42.4464 1.08828 43.9033 0.458036C44.4666 0.250532 45.032 0.0851385 45.5992 -0.038147ZM45.9076 3.2443C46.5865 3.07795 47.0619 3.30696 47.3337 3.93132C47.8809 5.03689 48.1635 6.20737 48.1817 7.44277C48.2524 10.9098 47.944 14.3449 47.2566 17.7481C46.5803 21.1651 45.7708 24.5493 44.8284 27.9008C44.4738 27.9237 44.1269 27.8983 43.7877 27.8245C42.3677 21.6338 40.2221 15.7051 37.3508 10.0382C39.2599 7.67666 41.4955 5.67924 44.0575 4.04582C44.6548 3.71136 45.2715 3.44418 45.9076 3.2443Z" fill="url(#paint0_linear_947_6282)"/>
<path opacity="0.979" fill-rule="evenodd" clip-rule="evenodd" d="M19.9259 1.33591C21.5398 1.25836 23.0559 1.60187 24.4741 2.36644C26.3355 3.44537 27.9672 4.80669 29.3692 6.45041C30.479 7.80904 31.5326 9.2085 32.5298 10.6489C36.5891 18.3062 39.2101 26.4232 40.3927 35C40.6734 37.4222 40.6477 39.8394 40.3157 42.2519C40.024 44.0109 39.3302 45.5885 38.2343 46.9848C36.9882 48.3271 35.4849 48.7214 33.7246 48.168C32.1751 47.6262 30.8518 46.7483 29.7546 45.5344C28.8944 44.5554 28.1235 43.5122 27.442 42.4046C24.5012 37.4718 21.7774 32.4082 19.2707 27.2138C17.1586 23.2584 14.8717 19.4161 12.4099 15.6871C11.3131 14.0919 10.1567 12.5398 8.94091 11.0306C8.88949 10.9288 8.88949 10.827 8.94091 10.7252C10.3814 8.42354 12.0903 6.32428 14.0672 4.42751C15.7514 2.89395 17.7043 1.86342 19.9259 1.33591ZM20.1572 4.61835C21.3404 4.58905 22.4196 4.90712 23.3949 5.57255C25.9367 7.40252 28.1465 9.56537 30.0244 12.0611C28.5959 14.0113 27.2726 16.0342 26.0544 18.1298C24.8014 20.3313 23.568 22.545 22.3542 24.771C21.1789 22.7227 19.9455 20.7125 18.654 18.7405C16.8123 16.0467 14.9236 13.3877 12.988 10.7634C14.3163 8.68461 16.0123 6.95431 18.0758 5.57255C18.7398 5.17195 19.4336 4.85388 20.1572 4.61835ZM31.8745 16.2214C33.165 19.0493 34.2057 21.9754 34.9966 25C35.8978 28.3682 36.5916 31.7778 37.078 35.229C37.327 37.3167 37.327 39.4032 37.078 41.4886C36.889 42.5847 36.5036 43.6025 35.9216 44.542C35.7114 44.7887 35.4673 44.9922 35.1893 45.1527C34.0862 44.8613 33.1483 44.3016 32.3756 43.4733C31.4586 42.3954 30.6364 41.2503 29.9088 40.0382C27.9374 36.6815 26.0745 33.2591 24.3199 29.771C25.9609 26.7121 27.5925 23.6459 29.215 20.5725C30.0637 19.0947 30.9502 17.6443 31.8745 16.2214Z" fill="url(#paint1_linear_947_6282)"/>
<path opacity="0.978" fill-rule="evenodd" clip-rule="evenodd" d="M5.66544 49.9619C5.43417 49.9619 5.20291 49.9619 4.97165 49.9619C3.46519 49.6659 2.32171 48.8517 1.54124 47.5191C1.14931 46.8444 0.840957 46.132 0.616184 45.3817C0.304937 44.2687 0.0865213 43.1491 -0.0390625 42.0229C-0.0390625 40.7252 -0.0390625 39.4275 -0.0390625 38.1298C0.980902 28.9036 3.71752 20.2013 8.17079 12.0229C11.3241 16.1536 14.1506 20.5048 16.6505 25.0764C17.7977 27.1575 18.9154 29.2568 20.0038 31.3741C17.7161 35.893 15.2622 40.3078 12.6419 44.6184C11.8722 45.7883 10.9857 46.8697 9.98236 47.8626C9.2232 48.5313 8.37523 49.0657 7.43846 49.4657C6.84776 49.6689 6.25675 49.8342 5.66544 49.9619ZM8.67186 18.5115C9.75348 20.0807 10.7942 21.6838 11.7939 23.3207C13.3498 25.9435 14.8272 28.6152 16.2265 31.3359C14.1069 35.63 11.7557 39.7775 9.17293 43.7787C8.43698 44.8491 7.49905 45.7016 6.35923 46.3359C6.01657 46.4684 5.66968 46.5829 5.31854 46.6794C4.83643 46.4123 4.4767 46.0306 4.23931 45.5344C3.5029 43.789 3.1817 41.9697 3.27571 40.0764C3.32207 37.3046 3.66896 34.5693 4.3164 31.8703C5.29828 27.2614 6.7501 22.8085 8.67186 18.5115Z" fill="url(#paint2_linear_947_6282)"/>
<g opacity="0.979">
<path opacity="0.993" fill-rule="evenodd" clip-rule="evenodd" d="M65.1755 1.08897C66.1043 0.989731 66.9471 1.20347 67.704 1.73019C71.7845 5.36378 75.8648 8.99736 79.9455 12.631C79.9764 8.88549 79.9869 5.1399 79.9764 1.39431C81.8061 1.39431 83.6353 1.39431 85.465 1.39431C85.4755 6.9923 85.465 12.5903 85.4342 18.1882C84.9661 20.2584 83.6606 21.1642 81.5181 20.9058C81.1469 20.8443 80.7978 20.7222 80.4697 20.5394C76.2866 16.8447 72.1031 13.15 67.9198 9.45538C67.889 13.1805 67.8787 16.9057 67.889 20.631C66.0594 20.631 64.2299 20.631 62.4003 20.631C62.39 15.1347 62.4003 9.63853 62.4312 4.1424C62.5966 2.44408 63.5113 1.42625 65.1755 1.08897Z" fill="url(#paint3_linear_947_6282)"/>
</g>
<g opacity="0.979">
<path opacity="0.99" fill-rule="evenodd" clip-rule="evenodd" d="M100.883 1.08893C103.865 0.943705 106.804 1.21851 109.702 1.91335C111.879 2.44563 113.678 3.55506 115.098 5.2416C116.062 6.66071 116.596 8.22816 116.701 9.94389C116.915 12.0877 116.545 14.1234 115.591 16.0508C114.555 17.7279 113.105 18.9188 111.243 19.6233C109.134 20.3921 106.956 20.8196 104.706 20.9057C102.164 21.0376 99.6359 20.9154 97.1209 20.5393C94.9372 20.1993 92.9638 19.385 91.2006 18.0966C89.591 16.6493 88.6764 14.8478 88.4563 12.692C87.7915 6.36844 90.6178 2.65345 96.9359 1.54694C98.252 1.31958 99.568 1.16691 100.883 1.08893ZM100.389 6.15763C101.829 6.14743 103.268 6.15763 104.706 6.18816C105.905 6.21222 107.076 6.39543 108.222 6.73778C109.737 7.30322 110.549 8.39225 110.658 10.005C110.711 10.8215 110.69 11.6357 110.596 12.4477C110.362 13.9193 109.529 14.8863 108.098 15.3485C107.113 15.642 106.106 15.8048 105.076 15.837C102.788 15.9872 100.507 15.9262 98.231 15.6538C97.2813 15.5101 96.4179 15.1641 95.6409 14.6156C94.9082 13.9065 94.5074 13.0414 94.4383 12.0202C94.339 10.9457 94.421 9.88716 94.685 8.84465C95.0692 7.79225 95.7994 7.08996 96.8743 6.73778C98.0312 6.40422 99.2029 6.21082 100.389 6.15763Z" fill="url(#paint4_linear_947_6282)"/>
</g>
<g opacity="0.979">
<path opacity="0.989" fill-rule="evenodd" clip-rule="evenodd" d="M173.037 20.5088C173.037 20.5496 173.037 20.5902 173.037 20.631C170.92 20.6412 168.802 20.631 166.685 20.6004C163.469 16.3882 160.242 12.1846 157.002 7.98974C153.974 12.1857 150.952 16.3892 147.937 20.6004C145.552 20.6513 143.167 20.6412 140.783 20.5699C144.958 14.7565 149.12 8.9346 153.271 3.10425C154.88 1.0698 156.885 0.571054 159.284 1.60806C159.865 1.97954 160.369 2.43756 160.795 2.98211C164.847 8.84965 168.927 14.6919 173.037 20.5088Z" fill="url(#paint5_linear_947_6282)"/>
</g>
<g opacity="0.979">
<path opacity="0.988" fill-rule="evenodd" clip-rule="evenodd" d="M115.375 1.39422C117.863 1.37389 120.35 1.39422 122.837 1.45529C125.693 5.66677 128.571 9.86018 131.471 14.0354C134.503 9.84179 137.524 5.63825 140.536 1.42476C142.921 1.38402 145.305 1.38402 147.69 1.42476C143.527 7.25682 139.365 13.0889 135.202 18.9209C134.483 19.8413 133.568 20.4825 132.458 20.8446C130.564 21.251 129.012 20.7115 127.802 19.2263C123.643 13.2894 119.501 7.34537 115.375 1.39422Z" fill="url(#paint6_linear_947_6282)"/>
</g>
<path opacity="0.979" d="M69.8519 38.8901H65.0667V36.7742H69.8519V38.8901ZM69.8519 35.0734H65.083C64.7955 35.0734 64.5785 35.1466 64.432 35.2931C64.2855 35.4342 64.2122 35.643 64.2122 35.9197V45.5714H62.0964V35.9197C62.0964 35.5562 62.1425 35.2307 62.2347 34.9432C62.3269 34.6556 62.449 34.4033 62.6009 34.1863C62.7582 33.9639 62.9373 33.7767 63.138 33.6248C63.3388 33.4675 63.5476 33.34 63.7646 33.2423C63.9871 33.1447 64.2095 33.0741 64.432 33.0307C64.6544 32.9819 64.866 32.9575 65.0667 32.9575H69.8519V35.0734ZM80.7813 42.601C80.7813 42.9645 80.7351 43.2928 80.6429 43.5857C80.5507 43.8733 80.4286 44.1283 80.2767 44.3507C80.1248 44.5677 79.9485 44.7549 79.7477 44.9122C79.547 45.0641 79.3354 45.1889 79.113 45.2866C78.8959 45.3842 78.6735 45.4575 78.4456 45.5063C78.2232 45.5497 78.0116 45.5714 77.8109 45.5714H73.9941C73.7012 45.5714 73.3811 45.5199 73.0339 45.4168C72.6866 45.3137 72.3638 45.1455 72.0654 44.9122C71.7725 44.6735 71.5256 44.367 71.3249 43.9926C71.1296 43.6129 71.0319 43.149 71.0319 42.601V39.7365C71.0319 39.1939 71.1296 38.7355 71.3249 38.3611C71.5256 37.9814 71.7725 37.6748 72.0654 37.4415C72.3638 37.2028 72.6866 37.0319 73.0339 36.9288C73.3811 36.8258 73.7012 36.7742 73.9941 36.7742H77.8109C78.3534 36.7742 78.8146 36.8719 79.1943 37.0672C79.5741 37.2625 79.8806 37.5093 80.1139 37.8077C80.3472 38.1007 80.5154 38.4208 80.6185 38.768C80.727 39.1152 80.7813 39.4381 80.7813 39.7365V42.601ZM78.6654 39.7527C78.6654 39.4598 78.5921 39.2427 78.4456 39.1017C78.2992 38.9606 78.0876 38.8901 77.8109 38.8901H74.0104C73.7283 38.8901 73.514 38.9633 73.3675 39.1098C73.221 39.2509 73.1478 39.4598 73.1478 39.7365V42.601C73.1478 42.8777 73.221 43.0893 73.3675 43.2358C73.514 43.3823 73.7283 43.4555 74.0104 43.4555H77.8109C78.0984 43.4555 78.3127 43.3823 78.4538 43.2358C78.5948 43.0893 78.6654 42.8777 78.6654 42.601V39.7527ZM90.2865 38.8901H85.5257C85.2382 38.8901 85.0212 38.9633 84.8747 39.1098C84.7282 39.2509 84.6549 39.4598 84.6549 39.7365V45.5714H82.5391V39.7365C82.5391 39.373 82.5852 39.0474 82.6774 38.7599C82.7696 38.4723 82.8917 38.2201 83.0436 38.0031C83.201 37.7806 83.38 37.5934 83.5807 37.4415C83.7815 37.2842 83.9903 37.1567 84.2074 37.059C84.4298 36.9614 84.6522 36.8909 84.8747 36.8475C85.1025 36.7986 85.3141 36.7742 85.5094 36.7742H90.2865V38.8901ZM108.857 43.0079C108.857 43.2684 108.811 43.5478 108.719 43.8462C108.632 44.1445 108.486 44.4212 108.28 44.6762C108.079 44.9312 107.816 45.1455 107.49 45.3191C107.165 45.4873 106.766 45.5714 106.294 45.5714H98.2617C98.1098 45.5714 97.9688 45.5443 97.8385 45.49C97.7083 45.4358 97.5944 45.3625 97.4967 45.2703C97.4045 45.1726 97.3313 45.0587 97.277 44.9285C97.2228 44.7983 97.1956 44.6572 97.1956 44.5053V34.9676C97.1956 34.8211 97.2228 34.6827 97.277 34.5525C97.3313 34.4223 97.4045 34.3084 97.4967 34.2107C97.5944 34.1131 97.7083 34.0371 97.8385 33.9829C97.9688 33.9286 98.1098 33.9015 98.2617 33.9015H105.342C105.602 33.9015 105.882 33.9476 106.18 34.0398C106.478 34.1321 106.755 34.2813 107.01 34.4874C107.271 34.6882 107.485 34.9513 107.653 35.2768C107.827 35.6023 107.913 36.0011 107.913 36.4731V36.8719C107.913 37.2462 107.851 37.6504 107.726 38.0844C107.601 38.513 107.401 38.9199 107.124 39.3051C107.363 39.4516 107.585 39.6279 107.791 39.8341C108.003 40.0403 108.187 40.279 108.345 40.5503C108.502 40.8215 108.627 41.1281 108.719 41.4698C108.811 41.8116 108.857 42.1887 108.857 42.601V43.0079ZM106.742 42.601C106.742 42.3243 106.698 42.0775 106.611 41.8605C106.525 41.638 106.402 41.4481 106.245 41.2908C106.088 41.1335 105.898 41.0141 105.675 40.9327C105.453 40.8459 105.203 40.8025 104.927 40.8025H100.158V38.6704H103.975C104.251 38.6704 104.501 38.6297 104.723 38.5483C104.946 38.4615 105.136 38.3394 105.293 38.1821C105.45 38.0248 105.57 37.8376 105.651 37.6206C105.738 37.3981 105.781 37.1486 105.781 36.8719V36.4731C105.781 36.1693 105.635 36.0174 105.342 36.0174H99.3115V43.4555H106.294C106.332 43.4555 106.378 43.4528 106.432 43.4474C106.487 43.442 106.535 43.4257 106.579 43.3986C106.622 43.3714 106.66 43.3253 106.693 43.2602C106.725 43.1951 106.742 43.1056 106.742 42.9917V42.601ZM120.088 44.5053C120.088 44.6572 120.061 44.7983 120.007 44.9285C119.952 45.0587 119.876 45.1726 119.779 45.2703C119.686 45.3625 119.575 45.4358 119.445 45.49C119.32 45.5443 119.185 45.5714 119.038 45.5714H114.253C113.993 45.5714 113.713 45.5416 113.415 45.4819C113.122 45.4222 112.831 45.3273 112.544 45.1971C112.256 45.0614 111.977 44.8932 111.706 44.6925C111.44 44.4863 111.207 44.2395 111.006 43.9519C110.805 43.659 110.642 43.3226 110.518 42.9428C110.398 42.5631 110.339 42.1345 110.339 41.657V36.7742H112.454V41.657C112.454 41.9337 112.501 42.1833 112.593 42.4057C112.69 42.6227 112.821 42.8099 112.983 42.9672C113.146 43.1246 113.336 43.2466 113.553 43.3335C113.775 43.4148 114.014 43.4555 114.269 43.4555H117.972V36.7742H120.088V44.5053ZM130.578 42.601C130.578 42.9645 130.532 43.2928 130.439 43.5857C130.347 43.8733 130.225 44.1283 130.073 44.3507C129.921 44.5677 129.745 44.7549 129.544 44.9122C129.344 45.0641 129.132 45.1889 128.91 45.2866C128.692 45.3842 128.47 45.4575 128.242 45.5063C128.02 45.5497 127.808 45.5714 127.607 45.5714H121.878V43.4555H127.591C127.879 43.4555 128.096 43.3823 128.242 43.2358C128.389 43.0893 128.462 42.8777 128.462 42.601C128.435 42.0368 128.15 41.7547 127.607 41.7547H124.328C123.861 41.7547 123.465 41.6733 123.14 41.5105C122.814 41.3478 122.548 41.1443 122.342 40.9002C122.141 40.656 121.995 40.3929 121.903 40.1108C121.816 39.8287 121.772 39.5656 121.772 39.3214C121.772 38.8494 121.857 38.4534 122.025 38.1333C122.193 37.8077 122.405 37.5446 122.66 37.3439C122.914 37.1431 123.191 36.9994 123.49 36.9126C123.788 36.8203 124.067 36.7742 124.328 36.7742H129.528V38.8901H124.344C124.236 38.8901 124.149 38.9037 124.084 38.9308C124.024 38.9525 123.978 38.985 123.945 39.0284C123.918 39.0664 123.902 39.1098 123.896 39.1587C123.891 39.2021 123.888 39.2455 123.888 39.2889C123.894 39.3757 123.91 39.4435 123.937 39.4923C123.964 39.5411 123.997 39.5764 124.035 39.5981C124.078 39.6198 124.124 39.6334 124.173 39.6388C124.227 39.6388 124.279 39.6388 124.328 39.6388H127.607C128.15 39.6388 128.611 39.7365 128.991 39.9318C129.371 40.1271 129.677 40.3739 129.91 40.6723C130.144 40.9653 130.312 41.2854 130.415 41.6326C130.524 41.9798 130.578 42.3026 130.578 42.601ZM134.215 34.9676H132.1V33.0551H134.215V34.9676ZM134.215 45.5714H132.1V36.7742H134.215V45.5714ZM145.999 45.5714H143.883V40.6886C143.883 40.4119 143.835 40.1651 143.737 39.948C143.645 39.7256 143.517 39.5357 143.354 39.3784C143.192 39.221 142.999 39.1017 142.777 39.0203C142.56 38.9335 142.324 38.8901 142.069 38.8901H138.366V45.5714H136.25V37.824C136.25 37.6775 136.277 37.5419 136.331 37.4171C136.386 37.2869 136.462 37.1757 136.559 37.0835C136.657 36.9858 136.771 36.9098 136.901 36.8556C137.031 36.8013 137.17 36.7742 137.316 36.7742H142.085C142.351 36.7742 142.63 36.8041 142.923 36.8637C143.222 36.9234 143.515 37.0211 143.802 37.1567C144.095 37.2869 144.372 37.4551 144.632 37.6613C144.898 37.862 145.131 38.1088 145.332 38.4018C145.538 38.6894 145.701 39.023 145.82 39.4028C145.94 39.7826 145.999 40.2112 145.999 40.6886V45.5714ZM157.319 39.6876C157.319 39.9806 157.268 40.298 157.165 40.6398C157.062 40.9761 156.893 41.2908 156.66 41.5838C156.432 41.8713 156.131 42.1128 155.757 42.3081C155.388 42.5034 154.938 42.601 154.406 42.601H150.589V40.5909H154.406C154.693 40.5909 154.916 40.5041 155.073 40.3305C155.231 40.1515 155.309 39.9318 155.309 39.6713C155.309 39.3947 155.22 39.1776 155.041 39.0203C154.867 38.863 154.655 38.7843 154.406 38.7843H150.589C150.302 38.7843 150.079 38.8738 149.922 39.0529C149.765 39.2265 149.686 39.4435 149.686 39.7039V42.658C149.686 42.9401 149.773 43.1598 149.946 43.3172C150.125 43.4745 150.345 43.5532 150.605 43.5532H154.406V45.5714H150.589C150.296 45.5714 149.979 45.5199 149.637 45.4168C149.301 45.3137 148.986 45.1482 148.693 44.9204C148.405 44.6871 148.164 44.386 147.969 44.017C147.773 43.6427 147.676 43.1897 147.676 42.658V39.6876C147.676 39.3947 147.727 39.08 147.83 38.7436C147.933 38.4018 148.099 38.0871 148.327 37.7996C148.56 37.5066 148.861 37.2625 149.23 37.0672C149.604 36.8719 150.058 36.7742 150.589 36.7742H154.406C154.699 36.7742 155.014 36.8258 155.35 36.9288C155.692 37.0319 156.006 37.2001 156.294 37.4334C156.587 37.6613 156.831 37.9624 157.026 38.3367C157.222 38.7056 157.319 39.1559 157.319 39.6876ZM167.248 42.601C167.248 42.9645 167.202 43.2928 167.109 43.5857C167.017 43.8733 166.895 44.1283 166.743 44.3507C166.591 44.5677 166.415 44.7549 166.214 44.9122C166.013 45.0641 165.802 45.1889 165.579 45.2866C165.362 45.3842 165.14 45.4575 164.912 45.5063C164.69 45.5497 164.478 45.5714 164.277 45.5714H158.548V43.4555H164.261C164.549 43.4555 164.766 43.3823 164.912 43.2358C165.059 43.0893 165.132 42.8777 165.132 42.601C165.105 42.0368 164.82 41.7547 164.277 41.7547H160.998C160.531 41.7547 160.135 41.6733 159.81 41.5105C159.484 41.3478 159.218 41.1443 159.012 40.9002C158.811 40.656 158.665 40.3929 158.573 40.1108C158.486 39.8287 158.442 39.5656 158.442 39.3214C158.442 38.8494 158.526 38.4534 158.695 38.1333C158.863 37.8077 159.074 37.5446 159.329 37.3439C159.584 37.1431 159.861 36.9994 160.16 36.9126C160.458 36.8203 160.737 36.7742 160.998 36.7742H166.198V38.8901H161.014C160.905 38.8901 160.819 38.9037 160.754 38.9308C160.694 38.9525 160.648 38.985 160.615 39.0284C160.588 39.0664 160.572 39.1098 160.566 39.1587C160.561 39.2021 160.558 39.2455 160.558 39.2889C160.564 39.3757 160.58 39.4435 160.607 39.4923C160.634 39.5411 160.667 39.5764 160.705 39.5981C160.748 39.6198 160.794 39.6334 160.843 39.6388C160.897 39.6388 160.949 39.6388 160.998 39.6388H164.277C164.82 39.6388 165.281 39.7365 165.661 39.9318C166.041 40.1271 166.347 40.3739 166.58 40.6723C166.814 40.9653 166.982 41.2854 167.085 41.6326C167.193 41.9798 167.248 42.3026 167.248 42.601ZM177.241 42.601C177.241 42.9645 177.195 43.2928 177.103 43.5857C177.011 43.8733 176.889 44.1283 176.737 44.3507C176.585 44.5677 176.408 44.7549 176.208 44.9122C176.007 45.0641 175.795 45.1889 175.573 45.2866C175.356 45.3842 175.133 45.4575 174.906 45.5063C174.683 45.5497 174.472 45.5714 174.271 45.5714H168.542V43.4555H174.255C174.542 43.4555 174.759 43.3823 174.906 43.2358C175.052 43.0893 175.125 42.8777 175.125 42.601C175.098 42.0368 174.813 41.7547 174.271 41.7547H170.991C170.525 41.7547 170.129 41.6733 169.803 41.5105C169.478 41.3478 169.212 41.1443 169.006 40.9002C168.805 40.656 168.658 40.3929 168.566 40.1108C168.479 39.8287 168.436 39.5656 168.436 39.3214C168.436 38.8494 168.52 38.4534 168.688 38.1333C168.856 37.8077 169.068 37.5446 169.323 37.3439C169.578 37.1431 169.855 36.9994 170.153 36.9126C170.451 36.8203 170.731 36.7742 170.991 36.7742H176.191V38.8901H171.007C170.899 38.8901 170.812 38.9037 170.747 38.9308C170.687 38.9525 170.641 38.985 170.609 39.0284C170.582 39.0664 170.565 39.1098 170.56 39.1587C170.554 39.2021 170.552 39.2455 170.552 39.2889C170.557 39.3757 170.573 39.4435 170.601 39.4923C170.628 39.5411 170.66 39.5764 170.698 39.5981C170.742 39.6198 170.788 39.6334 170.837 39.6388C170.891 39.6388 170.942 39.6388 170.991 39.6388H174.271C174.813 39.6388 175.275 39.7365 175.654 39.9318C176.034 40.1271 176.341 40.3739 176.574 40.6723C176.807 40.9653 176.975 41.2854 177.078 41.6326C177.187 41.9798 177.241 42.3026 177.241 42.601Z" fill="url(#paint7_linear_947_6282)"/>
</g>
<defs>
<linearGradient id="paint0_linear_947_6282" x1="52.3781" y1="-0.844165" x2="19.7119" y2="10.9065" gradientUnits="userSpaceOnUse">
<stop stop-color="white"/>
<stop offset="1" stop-color="#BEBEBE"/>
</linearGradient>
<linearGradient id="paint1_linear_947_6282" x1="42.1212" y1="0.419418" x2="-7.06145" y2="28.014" gradientUnits="userSpaceOnUse">
<stop stop-color="white"/>
<stop offset="1" stop-color="#BEBEBE"/>
</linearGradient>
<linearGradient id="paint2_linear_947_6282" x1="20.9752" y1="11.2931" x2="-13.2843" y2="26.3842" gradientUnits="userSpaceOnUse">
<stop stop-color="white"/>
<stop offset="1" stop-color="#BEBEBE"/>
</linearGradient>
<linearGradient id="paint3_linear_947_6282" x1="86.5872" y1="0.682871" x2="62.2653" y2="24.2153" gradientUnits="userSpaceOnUse">
<stop stop-color="white"/>
<stop offset="1" stop-color="#BEBEBE"/>
</linearGradient>
<linearGradient id="paint4_linear_947_6282" x1="118.136" y1="0.668342" x2="94.1361" y2="29.2176" gradientUnits="userSpaceOnUse">
<stop stop-color="white"/>
<stop offset="1" stop-color="#BEBEBE"/>
</linearGradient>
<linearGradient id="paint5_linear_947_6282" x1="174.6" y1="0.706765" x2="151.837" y2="32.0166" gradientUnits="userSpaceOnUse">
<stop stop-color="white"/>
<stop offset="1" stop-color="#BEBEBE"/>
</linearGradient>
<linearGradient id="paint6_linear_947_6282" x1="149.256" y1="1.00976" x2="126.451" y2="32.3793" gradientUnits="userSpaceOnUse">
<stop stop-color="white"/>
<stop offset="1" stop-color="#BEBEBE"/>
</linearGradient>
<linearGradient id="paint7_linear_947_6282" x1="183.575" y1="28.1482" x2="172.019" y2="79.3934" gradientUnits="userSpaceOnUse">
<stop stop-color="white"/>
<stop offset="1" stop-color="#BEBEBE"/>
</linearGradient>
<clipPath id="clip0_947_6282">
<rect width="198.81" height="50" fill="white"/>
</clipPath>
</defs>
</svg>
